%TF.GenerationSoftware,KiCad,Pcbnew,10.0.0*%
%TF.CreationDate,2026-03-31T11:39:24-04:00*%
%TF.ProjectId,rpi-preamp-psu-hat,7270692d-7072-4656-916d-702d7073752d,rev?*%
%TF.SameCoordinates,Original*%
%TF.FileFunction,Soldermask,Top*%
%TF.FilePolarity,Negative*%
%FSLAX46Y46*%
G04 Gerber Fmt 4.6, Leading zero omitted, Abs format (unit mm)*
G04 Created by KiCad (PCBNEW 10.0.0) date 2026-03-31 11:39:24*
%MOMM*%
%LPD*%
G01*
G04 APERTURE LIST*
G04 Aperture macros list*
%AMRoundRect*
0 Rectangle with rounded corners*
0 $1 Rounding radius*
0 $2 $3 $4 $5 $6 $7 $8 $9 X,Y pos of 4 corners*
0 Add a 4 corners polygon primitive as box body*
4,1,4,$2,$3,$4,$5,$6,$7,$8,$9,$2,$3,0*
0 Add four circle primitives for the rounded corners*
1,1,$1+$1,$2,$3*
1,1,$1+$1,$4,$5*
1,1,$1+$1,$6,$7*
1,1,$1+$1,$8,$9*
0 Add four rect primitives between the rounded corners*
20,1,$1+$1,$2,$3,$4,$5,0*
20,1,$1+$1,$4,$5,$6,$7,0*
20,1,$1+$1,$6,$7,$8,$9,0*
20,1,$1+$1,$8,$9,$2,$3,0*%
G04 Aperture macros list end*
%ADD10C,1.600000*%
%ADD11RoundRect,0.250000X0.550000X0.550000X-0.550000X0.550000X-0.550000X-0.550000X0.550000X-0.550000X0*%
%ADD12RoundRect,0.250000X-0.600000X-0.750000X0.600000X-0.750000X0.600000X0.750000X-0.600000X0.750000X0*%
%ADD13O,1.700000X2.000000*%
%ADD14RoundRect,0.237500X0.287500X0.237500X-0.287500X0.237500X-0.287500X-0.237500X0.287500X-0.237500X0*%
%ADD15RoundRect,0.237500X-0.287500X-0.237500X0.287500X-0.237500X0.287500X0.237500X-0.287500X0.237500X0*%
%ADD16R,1.500000X1.500000*%
%ADD17O,1.500000X1.500000*%
%ADD18RoundRect,0.250000X-0.550000X-0.550000X0.550000X-0.550000X0.550000X0.550000X-0.550000X0.550000X0*%
%ADD19RoundRect,0.250000X-0.550000X0.550000X-0.550000X-0.550000X0.550000X-0.550000X0.550000X0.550000X0*%
%ADD20RoundRect,0.240000X0.560000X-0.560000X0.560000X0.560000X-0.560000X0.560000X-0.560000X-0.560000X0*%
%ADD21R,1.905000X2.000000*%
%ADD22O,1.905000X2.000000*%
%ADD23R,1.700000X1.700000*%
%ADD24C,1.700000*%
G04 APERTURE END LIST*
D10*
%TO.C,C_NMH1*%
X116230000Y-72390000D03*
D11*
X121230000Y-72390000D03*
%TD*%
D12*
%TO.C,OUT2*%
X138470000Y-97155000D03*
D13*
X140970000Y-97155000D03*
%TD*%
D14*
%TO.C,FB1*%
X152245000Y-47625000D03*
X150495000Y-47625000D03*
%TD*%
D15*
%TO.C,FB2*%
X129806415Y-93464478D03*
X131556415Y-93464478D03*
%TD*%
D16*
%TO.C,U1*%
X138430000Y-57683037D03*
D17*
X135890000Y-57683037D03*
X130810000Y-57683037D03*
X128270000Y-57683037D03*
X125730000Y-57683037D03*
%TD*%
D10*
%TO.C,C_REG2*%
X124012000Y-83566000D03*
X126512000Y-83566000D03*
%TD*%
D18*
%TO.C,C_NMH3*%
X129350888Y-72390000D03*
D10*
X131850888Y-72390000D03*
%TD*%
D19*
%TO.C,C_IN1*%
X138430000Y-61351349D03*
D10*
X138430000Y-66351349D03*
%TD*%
%TO.C,C_9V2*%
X133644000Y-91186000D03*
X136144000Y-91186000D03*
%TD*%
D12*
%TO.C,OUT1*%
X129580000Y-97155000D03*
D13*
X132080000Y-97155000D03*
%TD*%
D20*
%TO.C,L1*%
X125730000Y-63976000D03*
X125730000Y-61976000D03*
%TD*%
D10*
%TO.C,R_9V1*%
X129814000Y-83566000D03*
X129814000Y-91186000D03*
%TD*%
%TO.C,R_IN1*%
X146377250Y-50103037D03*
X146377250Y-57723037D03*
%TD*%
%TO.C,C_IN2*%
X142875000Y-57745000D03*
X142875000Y-52745000D03*
%TD*%
D11*
%TO.C,C_9V1*%
X125730000Y-91186000D03*
D10*
X120730000Y-91186000D03*
%TD*%
%TO.C,C_NMH2*%
X125730000Y-72390000D03*
X125730000Y-74890000D03*
%TD*%
D18*
%TO.C,C_REG1*%
X133985000Y-83566000D03*
D10*
X138985000Y-83566000D03*
%TD*%
%TO.C,R_BLEED1*%
X130810000Y-60452000D03*
X130810000Y-68072000D03*
%TD*%
D21*
%TO.C,U2*%
X123952000Y-80264000D03*
D22*
X126492000Y-80264000D03*
X129032000Y-80264000D03*
%TD*%
D23*
%TO.C,J1*%
X149860000Y-50055000D03*
D24*
X152400000Y-50055000D03*
X149860000Y-52595000D03*
X152400000Y-52595000D03*
X149860000Y-55135000D03*
X152400000Y-55135000D03*
X149860000Y-57675000D03*
X152400000Y-57675000D03*
X149860000Y-60215000D03*
X152400000Y-60215000D03*
X149860000Y-62755000D03*
X152400000Y-62755000D03*
X149860000Y-65295000D03*
X152400000Y-65295000D03*
X149860000Y-67835000D03*
X152400000Y-67835000D03*
X149860000Y-70375000D03*
X152400000Y-70375000D03*
X149860000Y-72915000D03*
X152400000Y-72915000D03*
X149860000Y-75455000D03*
X152400000Y-75455000D03*
X149860000Y-77995000D03*
X152400000Y-77995000D03*
X149860000Y-80535000D03*
X152400000Y-80535000D03*
X149860000Y-83075000D03*
X152400000Y-83075000D03*
X149860000Y-85615000D03*
X152400000Y-85615000D03*
X149860000Y-88155000D03*
X152400000Y-88155000D03*
X149860000Y-90695000D03*
X152400000Y-90695000D03*
X149860000Y-93235000D03*
X152400000Y-93235000D03*
X149860000Y-95775000D03*
X152400000Y-95775000D03*
X149860000Y-98315000D03*
X152400000Y-98315000D03*
%TD*%
M02*
