%TF.GenerationSoftware,KiCad,Pcbnew,10.0.0*%
%TF.CreationDate,2026-03-31T11:39:23-04:00*%
%TF.ProjectId,rpi-preamp-psu-hat,7270692d-7072-4656-916d-702d7073752d,rev?*%
%TF.SameCoordinates,Original*%
%TF.FileFunction,Copper,L1,Top*%
%TF.FilePolarity,Positive*%
%FSLAX46Y46*%
G04 Gerber Fmt 4.6, Leading zero omitted, Abs format (unit mm)*
G04 Created by KiCad (PCBNEW 10.0.0) date 2026-03-31 11:39:23*
%MOMM*%
%LPD*%
G01*
G04 APERTURE LIST*
G04 Aperture macros list*
%AMRoundRect*
0 Rectangle with rounded corners*
0 $1 Rounding radius*
0 $2 $3 $4 $5 $6 $7 $8 $9 X,Y pos of 4 corners*
0 Add a 4 corners polygon primitive as box body*
4,1,4,$2,$3,$4,$5,$6,$7,$8,$9,$2,$3,0*
0 Add four circle primitives for the rounded corners*
1,1,$1+$1,$2,$3*
1,1,$1+$1,$4,$5*
1,1,$1+$1,$6,$7*
1,1,$1+$1,$8,$9*
0 Add four rect primitives between the rounded corners*
20,1,$1+$1,$2,$3,$4,$5,0*
20,1,$1+$1,$4,$5,$6,$7,0*
20,1,$1+$1,$6,$7,$8,$9,0*
20,1,$1+$1,$8,$9,$2,$3,0*%
G04 Aperture macros list end*
%TA.AperFunction,ComponentPad*%
%ADD10C,1.600000*%
%TD*%
%TA.AperFunction,ComponentPad*%
%ADD11RoundRect,0.250000X0.550000X0.550000X-0.550000X0.550000X-0.550000X-0.550000X0.550000X-0.550000X0*%
%TD*%
%TA.AperFunction,ComponentPad*%
%ADD12RoundRect,0.250000X-0.600000X-0.750000X0.600000X-0.750000X0.600000X0.750000X-0.600000X0.750000X0*%
%TD*%
%TA.AperFunction,ComponentPad*%
%ADD13O,1.700000X2.000000*%
%TD*%
%TA.AperFunction,SMDPad,CuDef*%
%ADD14RoundRect,0.237500X0.287500X0.237500X-0.287500X0.237500X-0.287500X-0.237500X0.287500X-0.237500X0*%
%TD*%
%TA.AperFunction,SMDPad,CuDef*%
%ADD15RoundRect,0.237500X-0.287500X-0.237500X0.287500X-0.237500X0.287500X0.237500X-0.287500X0.237500X0*%
%TD*%
%TA.AperFunction,ComponentPad*%
%ADD16R,1.500000X1.500000*%
%TD*%
%TA.AperFunction,ComponentPad*%
%ADD17O,1.500000X1.500000*%
%TD*%
%TA.AperFunction,ComponentPad*%
%ADD18RoundRect,0.250000X-0.550000X-0.550000X0.550000X-0.550000X0.550000X0.550000X-0.550000X0.550000X0*%
%TD*%
%TA.AperFunction,ComponentPad*%
%ADD19RoundRect,0.250000X-0.550000X0.550000X-0.550000X-0.550000X0.550000X-0.550000X0.550000X0.550000X0*%
%TD*%
%TA.AperFunction,ComponentPad*%
%ADD20RoundRect,0.240000X0.560000X-0.560000X0.560000X0.560000X-0.560000X0.560000X-0.560000X-0.560000X0*%
%TD*%
%TA.AperFunction,ComponentPad*%
%ADD21R,1.905000X2.000000*%
%TD*%
%TA.AperFunction,ComponentPad*%
%ADD22O,1.905000X2.000000*%
%TD*%
%TA.AperFunction,ComponentPad*%
%ADD23R,1.700000X1.700000*%
%TD*%
%TA.AperFunction,ComponentPad*%
%ADD24C,1.700000*%
%TD*%
%TA.AperFunction,Conductor*%
%ADD25C,1.000000*%
%TD*%
G04 APERTURE END LIST*
D10*
%TO.P,C_NMH1,2*%
%TO.N,/ISO_GND*%
X116230000Y-72390000D03*
D11*
%TO.P,C_NMH1,1*%
%TO.N,/+15V_f*%
X121230000Y-72390000D03*
%TD*%
D12*
%TO.P,OUT2,1,Pin_1_1*%
%TO.N,Net-(OUT1-Pin_1)*%
X138470000Y-97155000D03*
D13*
%TO.P,OUT2,2,Pin_2_2*%
%TO.N,/ISO_GND*%
X140970000Y-97155000D03*
%TD*%
D14*
%TO.P,FB1,1,1_1*%
%TO.N,/+5V*%
X152245000Y-47625000D03*
%TO.P,FB1,2,2_2*%
%TO.N,Net-(FB1-Pad2)*%
X150495000Y-47625000D03*
%TD*%
D15*
%TO.P,FB2,1,1_1*%
%TO.N,/+9V_filt*%
X129806415Y-93464478D03*
%TO.P,FB2,2,2_2*%
%TO.N,Net-(OUT1-Pin_1)*%
X131556415Y-93464478D03*
%TD*%
D16*
%TO.P,U1,1,+Vin_1*%
%TO.N,/+VIN*%
X138430000Y-57683037D03*
D17*
%TO.P,U1,2,-Vin_2*%
%TO.N,/Pi_GND*%
X135890000Y-57683037D03*
%TO.P,U1,4,-15V_4*%
%TO.N,/nNEG15V*%
X130810000Y-57683037D03*
%TO.P,U1,5,0V\u002A_5*%
%TO.N,/ISO_GND*%
X128270000Y-57683037D03*
%TO.P,U1,6,+15V_6*%
%TO.N,/+15V*%
X125730000Y-57683037D03*
%TD*%
D10*
%TO.P,C_REG2,1,~_1*%
%TO.N,/ISO_GND*%
X124012000Y-83566000D03*
%TO.P,C_REG2,2,~_2*%
%TO.N,/+9V*%
X126512000Y-83566000D03*
%TD*%
D18*
%TO.P,C_NMH3,1*%
%TO.N,/+15V_f*%
X129350888Y-72390000D03*
D10*
%TO.P,C_NMH3,2*%
%TO.N,/ISO_GND*%
X131850888Y-72390000D03*
%TD*%
D19*
%TO.P,C_IN1,1*%
%TO.N,/+VIN*%
X138430000Y-61351349D03*
D10*
%TO.P,C_IN1,2*%
%TO.N,/Pi_GND*%
X138430000Y-66351349D03*
%TD*%
%TO.P,C_9V2,1,~_1*%
%TO.N,/+9V_filt*%
X133644000Y-91186000D03*
%TO.P,C_9V2,2,~_2*%
%TO.N,/ISO_GND*%
X136144000Y-91186000D03*
%TD*%
D12*
%TO.P,OUT1,1,Pin_1_1*%
%TO.N,Net-(OUT1-Pin_1)*%
X129580000Y-97155000D03*
D13*
%TO.P,OUT1,2,Pin_2_2*%
%TO.N,/ISO_GND*%
X132080000Y-97155000D03*
%TD*%
D20*
%TO.P,L1,1,1_1*%
%TO.N,/+15V_f*%
X125730000Y-63976000D03*
%TO.P,L1,2,2_2*%
%TO.N,/+15V*%
X125730000Y-61976000D03*
%TD*%
D10*
%TO.P,R_9V1,1,~_1*%
%TO.N,/+9V*%
X129814000Y-83566000D03*
%TO.P,R_9V1,2,~_2*%
%TO.N,/+9V_filt*%
X129814000Y-91186000D03*
%TD*%
%TO.P,R_IN1,1,~_1*%
%TO.N,Net-(FB1-Pad2)*%
X146377250Y-50103037D03*
%TO.P,R_IN1,2,~_2*%
%TO.N,/+VIN*%
X146377250Y-57723037D03*
%TD*%
%TO.P,C_IN2,1,~_1*%
%TO.N,/+VIN*%
X142875000Y-57745000D03*
%TO.P,C_IN2,2,~_2*%
%TO.N,/Pi_GND*%
X142875000Y-52745000D03*
%TD*%
D11*
%TO.P,C_9V1,1*%
%TO.N,/+9V_filt*%
X125730000Y-91186000D03*
D10*
%TO.P,C_9V1,2*%
%TO.N,/ISO_GND*%
X120730000Y-91186000D03*
%TD*%
%TO.P,C_NMH2,1,~_1*%
%TO.N,/+15V_f*%
X125730000Y-72390000D03*
%TO.P,C_NMH2,2,~_2*%
%TO.N,/ISO_GND*%
X125730000Y-74890000D03*
%TD*%
D18*
%TO.P,C_REG1,1*%
%TO.N,/+9V*%
X133985000Y-83566000D03*
D10*
%TO.P,C_REG1,2*%
%TO.N,/ISO_GND*%
X138985000Y-83566000D03*
%TD*%
%TO.P,R_BLEED1,1,~_1*%
%TO.N,/nNEG15V*%
X130810000Y-60452000D03*
%TO.P,R_BLEED1,2,~_2*%
%TO.N,/ISO_GND*%
X130810000Y-68072000D03*
%TD*%
D21*
%TO.P,U2,1,IN_1*%
%TO.N,/+15V_f*%
X123952000Y-80264000D03*
D22*
%TO.P,U2,2,GND_2*%
%TO.N,/ISO_GND*%
X126492000Y-80264000D03*
%TO.P,U2,3,OUT_3*%
%TO.N,/+9V*%
X129032000Y-80264000D03*
%TD*%
D23*
%TO.P,J1,1,Pin_1_1*%
%TO.N,unconnected-(J1-Pin_1-Pad1)*%
X149860000Y-50055000D03*
D24*
%TO.P,J1,2,Pin_2_2*%
%TO.N,unconnected-(J1-Pin_2-Pad2)*%
X152400000Y-50055000D03*
%TO.P,J1,3,Pin_3_3*%
%TO.N,unconnected-(J1-Pin_3-Pad3)*%
X149860000Y-52595000D03*
%TO.P,J1,4,Pin_4_4*%
%TO.N,/+5V*%
X152400000Y-52595000D03*
%TO.P,J1,5,Pin_5_5*%
%TO.N,unconnected-(J1-Pin_5-Pad5)*%
X149860000Y-55135000D03*
%TO.P,J1,6,Pin_6_6*%
%TO.N,/Pi_GND*%
X152400000Y-55135000D03*
%TO.P,J1,7,Pin_7_7*%
%TO.N,unconnected-(J1-Pin_7-Pad7)*%
X149860000Y-57675000D03*
%TO.P,J1,8,Pin_8_8*%
%TO.N,unconnected-(J1-Pin_8-Pad8)*%
X152400000Y-57675000D03*
%TO.P,J1,9,Pin_9_9*%
%TO.N,unconnected-(J1-Pin_9-Pad9)*%
X149860000Y-60215000D03*
%TO.P,J1,10,Pin_10_10*%
%TO.N,unconnected-(J1-Pin_10-Pad10)*%
X152400000Y-60215000D03*
%TO.P,J1,11,Pin_11_11*%
%TO.N,unconnected-(J1-Pin_11-Pad11)*%
X149860000Y-62755000D03*
%TO.P,J1,12,Pin_12_12*%
%TO.N,unconnected-(J1-Pin_12-Pad12)*%
X152400000Y-62755000D03*
%TO.P,J1,13,Pin_13_13*%
%TO.N,unconnected-(J1-Pin_13-Pad13)*%
X149860000Y-65295000D03*
%TO.P,J1,14,Pin_14_14*%
%TO.N,unconnected-(J1-Pin_14-Pad14)*%
X152400000Y-65295000D03*
%TO.P,J1,15,Pin_15_15*%
%TO.N,unconnected-(J1-Pin_15-Pad15)*%
X149860000Y-67835000D03*
%TO.P,J1,16,Pin_16_16*%
%TO.N,unconnected-(J1-Pin_16-Pad16)*%
X152400000Y-67835000D03*
%TO.P,J1,17,Pin_17_17*%
%TO.N,unconnected-(J1-Pin_17-Pad17)*%
X149860000Y-70375000D03*
%TO.P,J1,18,Pin_18_18*%
%TO.N,unconnected-(J1-Pin_18-Pad18)*%
X152400000Y-70375000D03*
%TO.P,J1,19,Pin_19_19*%
%TO.N,unconnected-(J1-Pin_19-Pad19)*%
X149860000Y-72915000D03*
%TO.P,J1,20,Pin_20_20*%
%TO.N,unconnected-(J1-Pin_20-Pad20)*%
X152400000Y-72915000D03*
%TO.P,J1,21,Pin_21_21*%
%TO.N,unconnected-(J1-Pin_21-Pad21)*%
X149860000Y-75455000D03*
%TO.P,J1,22,Pin_22_22*%
%TO.N,unconnected-(J1-Pin_22-Pad22)*%
X152400000Y-75455000D03*
%TO.P,J1,23,Pin_23_23*%
%TO.N,unconnected-(J1-Pin_23-Pad23)*%
X149860000Y-77995000D03*
%TO.P,J1,24,Pin_24_24*%
%TO.N,unconnected-(J1-Pin_24-Pad24)*%
X152400000Y-77995000D03*
%TO.P,J1,25,Pin_25_25*%
%TO.N,unconnected-(J1-Pin_25-Pad25)*%
X149860000Y-80535000D03*
%TO.P,J1,26,Pin_26_26*%
%TO.N,unconnected-(J1-Pin_26-Pad26)*%
X152400000Y-80535000D03*
%TO.P,J1,27,Pin_27_27*%
%TO.N,unconnected-(J1-Pin_27-Pad27)*%
X149860000Y-83075000D03*
%TO.P,J1,28,Pin_28_28*%
%TO.N,unconnected-(J1-Pin_28-Pad28)*%
X152400000Y-83075000D03*
%TO.P,J1,29,Pin_29_29*%
%TO.N,unconnected-(J1-Pin_29-Pad29)*%
X149860000Y-85615000D03*
%TO.P,J1,30,Pin_30_30*%
%TO.N,unconnected-(J1-Pin_30-Pad30)*%
X152400000Y-85615000D03*
%TO.P,J1,31,Pin_31_31*%
%TO.N,unconnected-(J1-Pin_31-Pad31)*%
X149860000Y-88155000D03*
%TO.P,J1,32,Pin_32_32*%
%TO.N,unconnected-(J1-Pin_32-Pad32)*%
X152400000Y-88155000D03*
%TO.P,J1,33,Pin_33_33*%
%TO.N,unconnected-(J1-Pin_33-Pad33)*%
X149860000Y-90695000D03*
%TO.P,J1,34,Pin_34_34*%
%TO.N,unconnected-(J1-Pin_34-Pad34)*%
X152400000Y-90695000D03*
%TO.P,J1,35,Pin_35_35*%
%TO.N,unconnected-(J1-Pin_35-Pad35)*%
X149860000Y-93235000D03*
%TO.P,J1,36,Pin_36_36*%
%TO.N,unconnected-(J1-Pin_36-Pad36)*%
X152400000Y-93235000D03*
%TO.P,J1,37,Pin_37_37*%
%TO.N,unconnected-(J1-Pin_37-Pad37)*%
X149860000Y-95775000D03*
%TO.P,J1,38,Pin_38_38*%
%TO.N,unconnected-(J1-Pin_38-Pad38)*%
X152400000Y-95775000D03*
%TO.P,J1,39,Pin_39_39*%
%TO.N,unconnected-(J1-Pin_39-Pad39)*%
X149860000Y-98315000D03*
%TO.P,J1,40,Pin_40_40*%
%TO.N,unconnected-(J1-Pin_40-Pad40)*%
X152400000Y-98315000D03*
%TD*%
%TO.N,/+15V_f*%
D25*
X125730000Y-72390000D02*
X121230000Y-72390000D01*
%TO.N,Net-(OUT1-Pin_1)*%
X131445000Y-93575893D02*
X131556415Y-93464478D01*
X134739478Y-93464478D02*
X138430000Y-97155000D01*
X129580000Y-96480000D02*
X131445000Y-94615000D01*
X138430000Y-97155000D02*
X138470000Y-97155000D01*
X131445000Y-94615000D02*
X131445000Y-93575893D01*
X129580000Y-97155000D02*
X129580000Y-96480000D01*
X131556415Y-93464478D02*
X134739478Y-93464478D01*
%TO.N,/+5V*%
X154305000Y-48260000D02*
X153670000Y-47625000D01*
X154305000Y-52070000D02*
X154305000Y-48260000D01*
X153780000Y-52595000D02*
X154305000Y-52070000D01*
X152400000Y-52595000D02*
X153780000Y-52595000D01*
X153670000Y-47625000D02*
X152245000Y-47625000D01*
%TO.N,Net-(FB1-Pad2)*%
X150495000Y-47625000D02*
X148855287Y-47625000D01*
X148855287Y-47625000D02*
X146377250Y-50103037D01*
%TO.N,/+9V_filt*%
X129806415Y-93464478D02*
X129806415Y-91193585D01*
X129814000Y-91186000D02*
X125730000Y-91186000D01*
X129806415Y-91193585D02*
X129814000Y-91186000D01*
X129814000Y-91186000D02*
X133644000Y-91186000D01*
%TO.N,/+VIN*%
X142875000Y-57745000D02*
X146355287Y-57745000D01*
X142813037Y-57683037D02*
X142875000Y-57745000D01*
X146355287Y-57745000D02*
X146377250Y-57723037D01*
X138430000Y-57683037D02*
X142813037Y-57683037D01*
X138430000Y-57683037D02*
X138430000Y-61351349D01*
%TO.N,/nNEG15V*%
X130810000Y-57683037D02*
X130810000Y-60452000D01*
%TO.N,/+15V*%
X125730000Y-57683037D02*
X125730000Y-61976000D01*
%TO.N,/+9V*%
X129814000Y-81046000D02*
X129032000Y-80264000D01*
X129032000Y-83566000D02*
X125730000Y-83566000D01*
X129814000Y-83566000D02*
X129814000Y-81046000D01*
X129814000Y-83566000D02*
X133985000Y-83566000D01*
%TO.N,/+15V_f*%
X125730000Y-72390000D02*
X129350888Y-72390000D01*
X125730000Y-72390000D02*
X123952000Y-74168000D01*
X125730000Y-72390000D02*
X125730000Y-63976000D01*
X123952000Y-74168000D02*
X123952000Y-80264000D01*
%TD*%
%TA.AperFunction,Conductor*%
%TO.N,/Pi_GND*%
G36*
X147793101Y-46995021D02*
G01*
X147803954Y-46998207D01*
X147862735Y-47035977D01*
X147891764Y-47099531D01*
X147881825Y-47168690D01*
X147881824Y-47168692D01*
X147878639Y-47175667D01*
X147855000Y-47202949D01*
X147856815Y-47204760D01*
X146301761Y-48763603D01*
X146273401Y-48784861D01*
X146246030Y-48799807D01*
X146206001Y-48813448D01*
X146072720Y-48834558D01*
X145878025Y-48897819D01*
X145695637Y-48990751D01*
X145695635Y-48990752D01*
X145530037Y-49111064D01*
X145530034Y-49111066D01*
X145385279Y-49255821D01*
X145385277Y-49255824D01*
X145264965Y-49421422D01*
X145264958Y-49421434D01*
X145172036Y-49603801D01*
X145172030Y-49603814D01*
X145108771Y-49798505D01*
X145076750Y-50000679D01*
X145076750Y-50205393D01*
X145108771Y-50407567D01*
X145172030Y-50602258D01*
X145172036Y-50602271D01*
X145264958Y-50784638D01*
X145264959Y-50784639D01*
X145264965Y-50784650D01*
X145385278Y-50950250D01*
X145530036Y-51095008D01*
X145684999Y-51207593D01*
X145695640Y-51215324D01*
X145811857Y-51274540D01*
X145872404Y-51305390D01*
X145873293Y-51305861D01*
X145873499Y-51306062D01*
X145876879Y-51307699D01*
X145878887Y-51308697D01*
X145882653Y-51309759D01*
X145922738Y-51322783D01*
X145982385Y-51342163D01*
X145982386Y-51342164D01*
X146025862Y-51356290D01*
X146072715Y-51371514D01*
X146173807Y-51387525D01*
X146274898Y-51403537D01*
X146274899Y-51403537D01*
X146479601Y-51403537D01*
X146479602Y-51403537D01*
X146681784Y-51371514D01*
X146876469Y-51308257D01*
X147058860Y-51215324D01*
X147129051Y-51164327D01*
X147152448Y-51147329D01*
X147152448Y-51147328D01*
X147152449Y-51147328D01*
X147224463Y-51095008D01*
X147224465Y-51095005D01*
X147224469Y-51095003D01*
X147224472Y-51094999D01*
X147224525Y-51094961D01*
X147225282Y-51094189D01*
X147369216Y-50950256D01*
X147369218Y-50950252D01*
X147369221Y-50950250D01*
X147421980Y-50877630D01*
X147421982Y-50877628D01*
X147445422Y-50845364D01*
X147489537Y-50784647D01*
X147582470Y-50602256D01*
X147645727Y-50407571D01*
X147666387Y-50277119D01*
X147676807Y-50243418D01*
X147690172Y-50215226D01*
X147714532Y-50180672D01*
X148285216Y-49609989D01*
X148313457Y-49588847D01*
X148323395Y-49583420D01*
X148391663Y-49568570D01*
X148457128Y-49592986D01*
X148498994Y-49648906D01*
X148501676Y-49656094D01*
X148509500Y-49699442D01*
X148509500Y-50952876D01*
X148509659Y-50954806D01*
X148509885Y-50956454D01*
X148515907Y-51012482D01*
X148541055Y-51079905D01*
X148566202Y-51147328D01*
X148566203Y-51147329D01*
X148566203Y-51147331D01*
X148652450Y-51262542D01*
X148652452Y-51262544D01*
X148652455Y-51262547D01*
X148767664Y-51348793D01*
X148767671Y-51348797D01*
X148882376Y-51391579D01*
X148913350Y-51408491D01*
X148924461Y-51416808D01*
X148966334Y-51472740D01*
X148971321Y-51542432D01*
X148971318Y-51542445D01*
X148970342Y-51546930D01*
X148936860Y-51608244D01*
X148829886Y-51715218D01*
X148704949Y-51887182D01*
X148608445Y-52076580D01*
X148542752Y-52278759D01*
X148542752Y-52278760D01*
X148519604Y-52424919D01*
X148519604Y-52424920D01*
X148509500Y-52488713D01*
X148509500Y-52701290D01*
X148510528Y-52707783D01*
X148510529Y-52707786D01*
X148542752Y-52911239D01*
X148608445Y-53113418D01*
X148700486Y-53294056D01*
X148704951Y-53302820D01*
X148829890Y-53474786D01*
X148980213Y-53625109D01*
X149152182Y-53750050D01*
X149152190Y-53750054D01*
X149152693Y-53750363D01*
X149154174Y-53751496D01*
X149156122Y-53752912D01*
X149156086Y-53752960D01*
X149173034Y-53765934D01*
X149183315Y-53775643D01*
X149218541Y-53835983D01*
X149215552Y-53905789D01*
X149179383Y-53959507D01*
X149172227Y-53965708D01*
X149155814Y-53977723D01*
X149152190Y-53979943D01*
X148980210Y-54104892D01*
X148829892Y-54255210D01*
X148704949Y-54427182D01*
X148608445Y-54616580D01*
X148542752Y-54818759D01*
X148509500Y-55028707D01*
X148509500Y-55241291D01*
X148542752Y-55451239D01*
X148608445Y-55653418D01*
X148688809Y-55811139D01*
X148704951Y-55842820D01*
X148829890Y-56014786D01*
X148980213Y-56165109D01*
X149152182Y-56290050D01*
X149152190Y-56290054D01*
X149152693Y-56290363D01*
X149154174Y-56291496D01*
X149156122Y-56292912D01*
X149156086Y-56292960D01*
X149173034Y-56305934D01*
X149183315Y-56315643D01*
X149218541Y-56375983D01*
X149215552Y-56445789D01*
X149179383Y-56499507D01*
X149172227Y-56505708D01*
X149155814Y-56517723D01*
X149152190Y-56519943D01*
X148980210Y-56644892D01*
X148829892Y-56795210D01*
X148829890Y-56795213D01*
X148717708Y-56949621D01*
X148704949Y-56967182D01*
X148608445Y-57156580D01*
X148542752Y-57358759D01*
X148509500Y-57568707D01*
X148509500Y-57781291D01*
X148538297Y-57963107D01*
X148542752Y-57991234D01*
X148542755Y-57991246D01*
X148557487Y-58036589D01*
X148557488Y-58036589D01*
X148557488Y-58036590D01*
X148580378Y-58107038D01*
X148608445Y-58193418D01*
X148700486Y-58374056D01*
X148704951Y-58382820D01*
X148829890Y-58554786D01*
X148980213Y-58705109D01*
X149152182Y-58830050D01*
X149152190Y-58830054D01*
X149152693Y-58830363D01*
X149154174Y-58831496D01*
X149156122Y-58832912D01*
X149156086Y-58832960D01*
X149173034Y-58845934D01*
X149183315Y-58855643D01*
X149218541Y-58915983D01*
X149215552Y-58985789D01*
X149179383Y-59039507D01*
X149172227Y-59045708D01*
X149155814Y-59057723D01*
X149152190Y-59059943D01*
X148980210Y-59184892D01*
X148829892Y-59335210D01*
X148704949Y-59507182D01*
X148608445Y-59696580D01*
X148542752Y-59898759D01*
X148509500Y-60108707D01*
X148509500Y-60321291D01*
X148534956Y-60482012D01*
X148542753Y-60531239D01*
X148580869Y-60648551D01*
X148608443Y-60733414D01*
X148700486Y-60914056D01*
X148704951Y-60922820D01*
X148829890Y-61094786D01*
X148980213Y-61245109D01*
X149152182Y-61370050D01*
X149152190Y-61370054D01*
X149152693Y-61370363D01*
X149154174Y-61371496D01*
X149156122Y-61372912D01*
X149156086Y-61372960D01*
X149173034Y-61385934D01*
X149183315Y-61395643D01*
X149218541Y-61455983D01*
X149215552Y-61525789D01*
X149179383Y-61579507D01*
X149172227Y-61585708D01*
X149155814Y-61597723D01*
X149152190Y-61599943D01*
X148980210Y-61724892D01*
X148829892Y-61875210D01*
X148704949Y-62047182D01*
X148608445Y-62236580D01*
X148542752Y-62438759D01*
X148509500Y-62648707D01*
X148509500Y-62861291D01*
X148542752Y-63071239D01*
X148608445Y-63273418D01*
X148700486Y-63454056D01*
X148704951Y-63462820D01*
X148829890Y-63634786D01*
X148980213Y-63785109D01*
X149152182Y-63910050D01*
X149152190Y-63910054D01*
X149152693Y-63910363D01*
X149154174Y-63911496D01*
X149156122Y-63912912D01*
X149156086Y-63912960D01*
X149173034Y-63925934D01*
X149183315Y-63935643D01*
X149218541Y-63995983D01*
X149215552Y-64065789D01*
X149179383Y-64119507D01*
X149172227Y-64125708D01*
X149155814Y-64137723D01*
X149152190Y-64139943D01*
X148980210Y-64264892D01*
X148829892Y-64415210D01*
X148704949Y-64587182D01*
X148608445Y-64776582D01*
X148542752Y-64978762D01*
X148526186Y-65083358D01*
X148516171Y-65146593D01*
X148509500Y-65188713D01*
X148509500Y-65401287D01*
X148542754Y-65611243D01*
X148547362Y-65625426D01*
X148549265Y-65631282D01*
X148608445Y-65813418D01*
X148700486Y-65994056D01*
X148704951Y-66002820D01*
X148829890Y-66174786D01*
X148980213Y-66325109D01*
X149152182Y-66450050D01*
X149152190Y-66450054D01*
X149152693Y-66450363D01*
X149154174Y-66451496D01*
X149156122Y-66452912D01*
X149156086Y-66452960D01*
X149173034Y-66465934D01*
X149183315Y-66475643D01*
X149218541Y-66535983D01*
X149215552Y-66605789D01*
X149179383Y-66659507D01*
X149172227Y-66665708D01*
X149155814Y-66677723D01*
X149152190Y-66679943D01*
X148980210Y-66804892D01*
X148829892Y-66955210D01*
X148704949Y-67127182D01*
X148608445Y-67316580D01*
X148542752Y-67518759D01*
X148509500Y-67728707D01*
X148509500Y-67941291D01*
X148542752Y-68151239D01*
X148608445Y-68353418D01*
X148700486Y-68534056D01*
X148704951Y-68542820D01*
X148829890Y-68714786D01*
X148980213Y-68865109D01*
X149152182Y-68990050D01*
X149152190Y-68990054D01*
X149152693Y-68990363D01*
X149154174Y-68991496D01*
X149156122Y-68992912D01*
X149156086Y-68992960D01*
X149173034Y-69005934D01*
X149183315Y-69015643D01*
X149218541Y-69075983D01*
X149215552Y-69145789D01*
X149179383Y-69199507D01*
X149172227Y-69205708D01*
X149155814Y-69217723D01*
X149152190Y-69219943D01*
X148980210Y-69344892D01*
X148829892Y-69495210D01*
X148704949Y-69667182D01*
X148608445Y-69856580D01*
X148542752Y-70058759D01*
X148509500Y-70268707D01*
X148509500Y-70481291D01*
X148542752Y-70691239D01*
X148608445Y-70893418D01*
X148700486Y-71074056D01*
X148704951Y-71082820D01*
X148829890Y-71254786D01*
X148980213Y-71405109D01*
X149152182Y-71530050D01*
X149152190Y-71530054D01*
X149152693Y-71530363D01*
X149154174Y-71531496D01*
X149156122Y-71532912D01*
X149156086Y-71532960D01*
X149173034Y-71545934D01*
X149183315Y-71555643D01*
X149218541Y-71615983D01*
X149215552Y-71685789D01*
X149179383Y-71739507D01*
X149172227Y-71745708D01*
X149155814Y-71757723D01*
X149152190Y-71759943D01*
X148980210Y-71884892D01*
X148829892Y-72035210D01*
X148704949Y-72207182D01*
X148608445Y-72396580D01*
X148542752Y-72598759D01*
X148509500Y-72808707D01*
X148509500Y-73021291D01*
X148542752Y-73231239D01*
X148608445Y-73433418D01*
X148700486Y-73614056D01*
X148704951Y-73622820D01*
X148829890Y-73794786D01*
X148980213Y-73945109D01*
X149152182Y-74070050D01*
X149152190Y-74070054D01*
X149152693Y-74070363D01*
X149154174Y-74071496D01*
X149156122Y-74072912D01*
X149156086Y-74072960D01*
X149173034Y-74085934D01*
X149183315Y-74095643D01*
X149218541Y-74155983D01*
X149215552Y-74225789D01*
X149179383Y-74279507D01*
X149172227Y-74285708D01*
X149155814Y-74297723D01*
X149152190Y-74299943D01*
X148980210Y-74424892D01*
X148829892Y-74575210D01*
X148704949Y-74747182D01*
X148608445Y-74936580D01*
X148542752Y-75138759D01*
X148509500Y-75348707D01*
X148509500Y-75561291D01*
X148542752Y-75771239D01*
X148608445Y-75973418D01*
X148700486Y-76154056D01*
X148704951Y-76162820D01*
X148829890Y-76334786D01*
X148980213Y-76485109D01*
X149152182Y-76610050D01*
X149152190Y-76610054D01*
X149152693Y-76610363D01*
X149154174Y-76611496D01*
X149156122Y-76612912D01*
X149156086Y-76612960D01*
X149173034Y-76625934D01*
X149183315Y-76635643D01*
X149218541Y-76695983D01*
X149215552Y-76765789D01*
X149179383Y-76819507D01*
X149172227Y-76825708D01*
X149155814Y-76837723D01*
X149152190Y-76839943D01*
X148980210Y-76964892D01*
X148829892Y-77115210D01*
X148704949Y-77287182D01*
X148608445Y-77476580D01*
X148542752Y-77678759D01*
X148509500Y-77888707D01*
X148509500Y-78101291D01*
X148542752Y-78311239D01*
X148608445Y-78513418D01*
X148700486Y-78694056D01*
X148704951Y-78702820D01*
X148829890Y-78874786D01*
X148980213Y-79025109D01*
X149152182Y-79150050D01*
X149152190Y-79150054D01*
X149152693Y-79150363D01*
X149154174Y-79151496D01*
X149156122Y-79152912D01*
X149156086Y-79152960D01*
X149173034Y-79165934D01*
X149183315Y-79175643D01*
X149218541Y-79235983D01*
X149215552Y-79305789D01*
X149179383Y-79359507D01*
X149172227Y-79365708D01*
X149155814Y-79377723D01*
X149152190Y-79379943D01*
X148980210Y-79504892D01*
X148829892Y-79655210D01*
X148704949Y-79827182D01*
X148608445Y-80016580D01*
X148542752Y-80218759D01*
X148509500Y-80428707D01*
X148509500Y-80641291D01*
X148542752Y-80851239D01*
X148608445Y-81053418D01*
X148700486Y-81234056D01*
X148704951Y-81242820D01*
X148829890Y-81414786D01*
X148980213Y-81565109D01*
X149152182Y-81690050D01*
X149152190Y-81690054D01*
X149152693Y-81690363D01*
X149154174Y-81691496D01*
X149156122Y-81692912D01*
X149156086Y-81692960D01*
X149173034Y-81705934D01*
X149183315Y-81715643D01*
X149218541Y-81775983D01*
X149215552Y-81845789D01*
X149179383Y-81899507D01*
X149172227Y-81905708D01*
X149155814Y-81917723D01*
X149152190Y-81919943D01*
X148980210Y-82044892D01*
X148829892Y-82195210D01*
X148704949Y-82367182D01*
X148608445Y-82556580D01*
X148542752Y-82758759D01*
X148509500Y-82968707D01*
X148509500Y-83181290D01*
X148524210Y-83274165D01*
X148542753Y-83391243D01*
X148567518Y-83467458D01*
X148608445Y-83593418D01*
X148700486Y-83774056D01*
X148704951Y-83782820D01*
X148829890Y-83954786D01*
X148980213Y-84105109D01*
X149152182Y-84230050D01*
X149152190Y-84230054D01*
X149152693Y-84230363D01*
X149154174Y-84231496D01*
X149156122Y-84232912D01*
X149156086Y-84232960D01*
X149173034Y-84245934D01*
X149183315Y-84255643D01*
X149218541Y-84315983D01*
X149215552Y-84385789D01*
X149179383Y-84439507D01*
X149172227Y-84445708D01*
X149155814Y-84457723D01*
X149152190Y-84459943D01*
X148980210Y-84584892D01*
X148829892Y-84735210D01*
X148704949Y-84907182D01*
X148608445Y-85096580D01*
X148542752Y-85298759D01*
X148509500Y-85508707D01*
X148509500Y-85721291D01*
X148542752Y-85931239D01*
X148608445Y-86133418D01*
X148700486Y-86314056D01*
X148704951Y-86322820D01*
X148829890Y-86494786D01*
X148980213Y-86645109D01*
X149152182Y-86770050D01*
X149152190Y-86770054D01*
X149152693Y-86770363D01*
X149154174Y-86771496D01*
X149156122Y-86772912D01*
X149156086Y-86772960D01*
X149173034Y-86785934D01*
X149183315Y-86795643D01*
X149218541Y-86855983D01*
X149215552Y-86925789D01*
X149179383Y-86979507D01*
X149172227Y-86985708D01*
X149155814Y-86997723D01*
X149152190Y-86999943D01*
X148980210Y-87124892D01*
X148829892Y-87275210D01*
X148704949Y-87447182D01*
X148608445Y-87636580D01*
X148542752Y-87838759D01*
X148509500Y-88048707D01*
X148509500Y-88261291D01*
X148542752Y-88471239D01*
X148608445Y-88673418D01*
X148700486Y-88854056D01*
X148704951Y-88862820D01*
X148829890Y-89034786D01*
X148980213Y-89185109D01*
X149152182Y-89310050D01*
X149152190Y-89310054D01*
X149152693Y-89310363D01*
X149154174Y-89311496D01*
X149156122Y-89312912D01*
X149156086Y-89312960D01*
X149173034Y-89325934D01*
X149183315Y-89335643D01*
X149218541Y-89395983D01*
X149215552Y-89465789D01*
X149179383Y-89519507D01*
X149172227Y-89525708D01*
X149155814Y-89537723D01*
X149152190Y-89539943D01*
X148980210Y-89664892D01*
X148829892Y-89815210D01*
X148704949Y-89987182D01*
X148608445Y-90176580D01*
X148542752Y-90378759D01*
X148509500Y-90588707D01*
X148509500Y-90801290D01*
X148524210Y-90894165D01*
X148542753Y-91011243D01*
X148567518Y-91087458D01*
X148608445Y-91213418D01*
X148700486Y-91394056D01*
X148704951Y-91402820D01*
X148829890Y-91574786D01*
X148980213Y-91725109D01*
X149152182Y-91850050D01*
X149152190Y-91850054D01*
X149152693Y-91850363D01*
X149154174Y-91851496D01*
X149156122Y-91852912D01*
X149156086Y-91852960D01*
X149173034Y-91865934D01*
X149183315Y-91875643D01*
X149218541Y-91935983D01*
X149215552Y-92005789D01*
X149179383Y-92059507D01*
X149172227Y-92065708D01*
X149155814Y-92077723D01*
X149152190Y-92079943D01*
X148980210Y-92204892D01*
X148829892Y-92355210D01*
X148704949Y-92527182D01*
X148608445Y-92716580D01*
X148542752Y-92918759D01*
X148509500Y-93128707D01*
X148509500Y-93341286D01*
X148542753Y-93551240D01*
X148542754Y-93551243D01*
X148546580Y-93563019D01*
X148588919Y-93693323D01*
X148608445Y-93753418D01*
X148700486Y-93934056D01*
X148704951Y-93942820D01*
X148829890Y-94114786D01*
X148980213Y-94265109D01*
X149152182Y-94390050D01*
X149152190Y-94390054D01*
X149152693Y-94390363D01*
X149154174Y-94391496D01*
X149156122Y-94392912D01*
X149156086Y-94392960D01*
X149173034Y-94405934D01*
X149183315Y-94415643D01*
X149218541Y-94475983D01*
X149215552Y-94545789D01*
X149179383Y-94599507D01*
X149172227Y-94605708D01*
X149155814Y-94617723D01*
X149152190Y-94619943D01*
X148980210Y-94744892D01*
X148829892Y-94895210D01*
X148704949Y-95067182D01*
X148608445Y-95256580D01*
X148542752Y-95458759D01*
X148509500Y-95668707D01*
X148509500Y-95881291D01*
X148541869Y-96085663D01*
X148541870Y-96085663D01*
X148541870Y-96085666D01*
X148542754Y-96091242D01*
X148595052Y-96252201D01*
X148608442Y-96293410D01*
X148608443Y-96293412D01*
X148700485Y-96474056D01*
X148704951Y-96482820D01*
X148829890Y-96654786D01*
X148980213Y-96805109D01*
X149152182Y-96930050D01*
X149152190Y-96930054D01*
X149152693Y-96930363D01*
X149154174Y-96931496D01*
X149156122Y-96932912D01*
X149156086Y-96932960D01*
X149173034Y-96945934D01*
X149183315Y-96955643D01*
X149218541Y-97015983D01*
X149215552Y-97085789D01*
X149179383Y-97139507D01*
X149172227Y-97145708D01*
X149155814Y-97157723D01*
X149152190Y-97159943D01*
X148980210Y-97284892D01*
X148829892Y-97435210D01*
X148704949Y-97607182D01*
X148608445Y-97796580D01*
X148542754Y-97998755D01*
X148542750Y-97998770D01*
X148540620Y-98012229D01*
X148540619Y-98012236D01*
X148509500Y-98208713D01*
X148509500Y-98421286D01*
X148542754Y-98631243D01*
X148550635Y-98655498D01*
X148608445Y-98833418D01*
X148700486Y-99014056D01*
X148704951Y-99022820D01*
X148829890Y-99194786D01*
X148829892Y-99194788D01*
X148980216Y-99345112D01*
X149152169Y-99470042D01*
X149152177Y-99470047D01*
X149152179Y-99470048D01*
X149152181Y-99470049D01*
X149152182Y-99470050D01*
X149152200Y-99470060D01*
X149152442Y-99470182D01*
X149341588Y-99566557D01*
X149543757Y-99632246D01*
X149753713Y-99665500D01*
X149753714Y-99665500D01*
X149966286Y-99665500D01*
X149966287Y-99665500D01*
X150176243Y-99632246D01*
X150378412Y-99566557D01*
X150567816Y-99470051D01*
X150589789Y-99454086D01*
X150739786Y-99345109D01*
X150739786Y-99345108D01*
X150739844Y-99345066D01*
X150740605Y-99344290D01*
X150890104Y-99194792D01*
X150890106Y-99194788D01*
X150890109Y-99194786D01*
X151015048Y-99022820D01*
X151015047Y-99022820D01*
X151015051Y-99022816D01*
X151015053Y-99022811D01*
X151023066Y-99011782D01*
X151023071Y-99011778D01*
X151033229Y-98999531D01*
X151040647Y-98991678D01*
X151075566Y-98971294D01*
X151078394Y-98969114D01*
X151079458Y-98969022D01*
X151100985Y-98956457D01*
X151170791Y-98959447D01*
X151224503Y-98995612D01*
X151230707Y-99002771D01*
X151242729Y-99019193D01*
X151244949Y-99022817D01*
X151244951Y-99022820D01*
X151369890Y-99194786D01*
X151369892Y-99194788D01*
X151520216Y-99345112D01*
X151692169Y-99470042D01*
X151692177Y-99470047D01*
X151692179Y-99470048D01*
X151692181Y-99470049D01*
X151692182Y-99470050D01*
X151692200Y-99470060D01*
X151692442Y-99470182D01*
X151881588Y-99566557D01*
X152083757Y-99632246D01*
X152293713Y-99665500D01*
X152293714Y-99665500D01*
X152506286Y-99665500D01*
X152506287Y-99665500D01*
X152716243Y-99632246D01*
X152918412Y-99566557D01*
X153107816Y-99470051D01*
X153129789Y-99454086D01*
X153279786Y-99345109D01*
X153279786Y-99345108D01*
X153279844Y-99345066D01*
X153280605Y-99344290D01*
X153430104Y-99194792D01*
X153430106Y-99194788D01*
X153430109Y-99194786D01*
X153555048Y-99022820D01*
X153555047Y-99022820D01*
X153555051Y-99022816D01*
X153555053Y-99022810D01*
X153575445Y-98994744D01*
X153583730Y-98966529D01*
X153651557Y-98833412D01*
X153717246Y-98631243D01*
X153750500Y-98421287D01*
X153750500Y-98208713D01*
X153717246Y-97998757D01*
X153651557Y-97796588D01*
X153555051Y-97607184D01*
X153555049Y-97607181D01*
X153555048Y-97607179D01*
X153554702Y-97606703D01*
X153554700Y-97606699D01*
X153430112Y-97435216D01*
X153279782Y-97284886D01*
X153107824Y-97159953D01*
X153107258Y-97159606D01*
X153105627Y-97158357D01*
X153103901Y-97157103D01*
X153103932Y-97157059D01*
X153086960Y-97144062D01*
X153076683Y-97134357D01*
X153041457Y-97074017D01*
X153044445Y-97004212D01*
X153080612Y-96950495D01*
X153087783Y-96944281D01*
X153104201Y-96932266D01*
X153107812Y-96930052D01*
X153107816Y-96930051D01*
X153150947Y-96898713D01*
X153150950Y-96898713D01*
X153212095Y-96854288D01*
X153279786Y-96805109D01*
X153279788Y-96805106D01*
X153279792Y-96805104D01*
X153279797Y-96805098D01*
X153279851Y-96805059D01*
X153280606Y-96804289D01*
X153430104Y-96654792D01*
X153430106Y-96654788D01*
X153430109Y-96654786D01*
X153539086Y-96504789D01*
X153555051Y-96482816D01*
X153651557Y-96293412D01*
X153717246Y-96091243D01*
X153750500Y-95881287D01*
X153750500Y-95668713D01*
X153717246Y-95458757D01*
X153651557Y-95256588D01*
X153555051Y-95067184D01*
X153555049Y-95067181D01*
X153555048Y-95067179D01*
X153554702Y-95066703D01*
X153554700Y-95066699D01*
X153430112Y-94895216D01*
X153279782Y-94744886D01*
X153107824Y-94619953D01*
X153107258Y-94619606D01*
X153105627Y-94618357D01*
X153103901Y-94617103D01*
X153103932Y-94617059D01*
X153086960Y-94604062D01*
X153076683Y-94594357D01*
X153041457Y-94534017D01*
X153044445Y-94464212D01*
X153080612Y-94410495D01*
X153087783Y-94404281D01*
X153104201Y-94392266D01*
X153107810Y-94390054D01*
X153107816Y-94390051D01*
X153161414Y-94351110D01*
X153279786Y-94265109D01*
X153279787Y-94265107D01*
X153279847Y-94265063D01*
X153280605Y-94264290D01*
X153430104Y-94114792D01*
X153430106Y-94114788D01*
X153430109Y-94114786D01*
X153555048Y-93942820D01*
X153555047Y-93942820D01*
X153555051Y-93942816D01*
X153555053Y-93942810D01*
X153575445Y-93914744D01*
X153583730Y-93886529D01*
X153651557Y-93753412D01*
X153717246Y-93551243D01*
X153750500Y-93341287D01*
X153750500Y-93128713D01*
X153717246Y-92918757D01*
X153651557Y-92716588D01*
X153555051Y-92527184D01*
X153555049Y-92527181D01*
X153555048Y-92527179D01*
X153554702Y-92526703D01*
X153554700Y-92526699D01*
X153430112Y-92355216D01*
X153279782Y-92204886D01*
X153107824Y-92079953D01*
X153107258Y-92079606D01*
X153105627Y-92078357D01*
X153103901Y-92077103D01*
X153103932Y-92077059D01*
X153086960Y-92064062D01*
X153076683Y-92054357D01*
X153041457Y-91994017D01*
X153044445Y-91924212D01*
X153080613Y-91870493D01*
X153087783Y-91864281D01*
X153104187Y-91852275D01*
X153107816Y-91850051D01*
X153107817Y-91850050D01*
X153129789Y-91834086D01*
X153279786Y-91725109D01*
X153279787Y-91725106D01*
X153279790Y-91725105D01*
X153279792Y-91725104D01*
X153279793Y-91725102D01*
X153279847Y-91725063D01*
X153280605Y-91724290D01*
X153430104Y-91574792D01*
X153430106Y-91574788D01*
X153430109Y-91574786D01*
X153555048Y-91402820D01*
X153555047Y-91402820D01*
X153555051Y-91402816D01*
X153555053Y-91402810D01*
X153575445Y-91374744D01*
X153583730Y-91346529D01*
X153651557Y-91213412D01*
X153717246Y-91011243D01*
X153750500Y-90801287D01*
X153750500Y-90588713D01*
X153717246Y-90378757D01*
X153651557Y-90176588D01*
X153555051Y-89987184D01*
X153555049Y-89987181D01*
X153555048Y-89987179D01*
X153554702Y-89986703D01*
X153554700Y-89986699D01*
X153430112Y-89815216D01*
X153279782Y-89664886D01*
X153107824Y-89539953D01*
X153107258Y-89539606D01*
X153105627Y-89538357D01*
X153103901Y-89537103D01*
X153103932Y-89537059D01*
X153086960Y-89524062D01*
X153076683Y-89514357D01*
X153041457Y-89454017D01*
X153044445Y-89384212D01*
X153080613Y-89330493D01*
X153087783Y-89324281D01*
X153104187Y-89312275D01*
X153107816Y-89310051D01*
X153107817Y-89310050D01*
X153129789Y-89294086D01*
X153279786Y-89185109D01*
X153279787Y-89185106D01*
X153279790Y-89185105D01*
X153279792Y-89185104D01*
X153279793Y-89185102D01*
X153279847Y-89185063D01*
X153280605Y-89184290D01*
X153430104Y-89034792D01*
X153430106Y-89034788D01*
X153430109Y-89034786D01*
X153555048Y-88862820D01*
X153555047Y-88862820D01*
X153555051Y-88862816D01*
X153555053Y-88862810D01*
X153575445Y-88834744D01*
X153583730Y-88806529D01*
X153651557Y-88673412D01*
X153717246Y-88471243D01*
X153750500Y-88261287D01*
X153750500Y-88048713D01*
X153717246Y-87838757D01*
X153651557Y-87636588D01*
X153555051Y-87447184D01*
X153555049Y-87447181D01*
X153555048Y-87447179D01*
X153554702Y-87446703D01*
X153554700Y-87446699D01*
X153430112Y-87275216D01*
X153279782Y-87124886D01*
X153107824Y-86999953D01*
X153107258Y-86999606D01*
X153105627Y-86998357D01*
X153103901Y-86997103D01*
X153103932Y-86997059D01*
X153086960Y-86984062D01*
X153076683Y-86974357D01*
X153041457Y-86914017D01*
X153044445Y-86844212D01*
X153080613Y-86790493D01*
X153087783Y-86784281D01*
X153104187Y-86772275D01*
X153107816Y-86770051D01*
X153107817Y-86770050D01*
X153129789Y-86754086D01*
X153279786Y-86645109D01*
X153279787Y-86645106D01*
X153279790Y-86645105D01*
X153279792Y-86645104D01*
X153279793Y-86645102D01*
X153279847Y-86645063D01*
X153280605Y-86644290D01*
X153430104Y-86494792D01*
X153430106Y-86494788D01*
X153430109Y-86494786D01*
X153555048Y-86322820D01*
X153555047Y-86322820D01*
X153555051Y-86322816D01*
X153555053Y-86322810D01*
X153575445Y-86294744D01*
X153583730Y-86266529D01*
X153651557Y-86133412D01*
X153717246Y-85931243D01*
X153750500Y-85721287D01*
X153750500Y-85508713D01*
X153717246Y-85298757D01*
X153651557Y-85096588D01*
X153555051Y-84907184D01*
X153555049Y-84907181D01*
X153555048Y-84907179D01*
X153554702Y-84906703D01*
X153554700Y-84906699D01*
X153430112Y-84735216D01*
X153279782Y-84584886D01*
X153107824Y-84459953D01*
X153107258Y-84459606D01*
X153105627Y-84458357D01*
X153103901Y-84457103D01*
X153103932Y-84457059D01*
X153086960Y-84444062D01*
X153076683Y-84434357D01*
X153041457Y-84374017D01*
X153044445Y-84304212D01*
X153080613Y-84250493D01*
X153087783Y-84244281D01*
X153104187Y-84232275D01*
X153107816Y-84230051D01*
X153107817Y-84230050D01*
X153129789Y-84214086D01*
X153279786Y-84105109D01*
X153279787Y-84105106D01*
X153279790Y-84105105D01*
X153279792Y-84105104D01*
X153279793Y-84105102D01*
X153279847Y-84105063D01*
X153280605Y-84104290D01*
X153430104Y-83954792D01*
X153430106Y-83954788D01*
X153430109Y-83954786D01*
X153555048Y-83782820D01*
X153555047Y-83782820D01*
X153555051Y-83782816D01*
X153555053Y-83782810D01*
X153575445Y-83754744D01*
X153583730Y-83726529D01*
X153651557Y-83593412D01*
X153717246Y-83391243D01*
X153750500Y-83181287D01*
X153750500Y-82968713D01*
X153717246Y-82758757D01*
X153651557Y-82556588D01*
X153555051Y-82367184D01*
X153555049Y-82367181D01*
X153555048Y-82367179D01*
X153554702Y-82366703D01*
X153554700Y-82366699D01*
X153430112Y-82195216D01*
X153279782Y-82044886D01*
X153107824Y-81919953D01*
X153107258Y-81919606D01*
X153105627Y-81918357D01*
X153103901Y-81917103D01*
X153103932Y-81917059D01*
X153086960Y-81904062D01*
X153076683Y-81894357D01*
X153041457Y-81834017D01*
X153044445Y-81764212D01*
X153080613Y-81710493D01*
X153087783Y-81704281D01*
X153104187Y-81692275D01*
X153107816Y-81690051D01*
X153107817Y-81690050D01*
X153129789Y-81674086D01*
X153279786Y-81565109D01*
X153279787Y-81565106D01*
X153279790Y-81565105D01*
X153279792Y-81565104D01*
X153279793Y-81565102D01*
X153279847Y-81565063D01*
X153280605Y-81564290D01*
X153430104Y-81414792D01*
X153430106Y-81414788D01*
X153430109Y-81414786D01*
X153555048Y-81242820D01*
X153555047Y-81242820D01*
X153555051Y-81242816D01*
X153555053Y-81242810D01*
X153575445Y-81214744D01*
X153583730Y-81186529D01*
X153651557Y-81053412D01*
X153717246Y-80851243D01*
X153750500Y-80641287D01*
X153750500Y-80428713D01*
X153717246Y-80218757D01*
X153651557Y-80016588D01*
X153555051Y-79827184D01*
X153555049Y-79827181D01*
X153555048Y-79827179D01*
X153554702Y-79826703D01*
X153554700Y-79826699D01*
X153430112Y-79655216D01*
X153279782Y-79504886D01*
X153107824Y-79379953D01*
X153107258Y-79379606D01*
X153105627Y-79378357D01*
X153103901Y-79377103D01*
X153103932Y-79377059D01*
X153086960Y-79364062D01*
X153076683Y-79354357D01*
X153041457Y-79294017D01*
X153044445Y-79224212D01*
X153080613Y-79170493D01*
X153087783Y-79164281D01*
X153104187Y-79152275D01*
X153107816Y-79150051D01*
X153107817Y-79150050D01*
X153129789Y-79134086D01*
X153279786Y-79025109D01*
X153279787Y-79025106D01*
X153279790Y-79025105D01*
X153279792Y-79025104D01*
X153279793Y-79025102D01*
X153279847Y-79025063D01*
X153280605Y-79024290D01*
X153430104Y-78874792D01*
X153430106Y-78874788D01*
X153430109Y-78874786D01*
X153555048Y-78702820D01*
X153555047Y-78702820D01*
X153555051Y-78702816D01*
X153555053Y-78702810D01*
X153575445Y-78674744D01*
X153583730Y-78646529D01*
X153651557Y-78513412D01*
X153717246Y-78311243D01*
X153750500Y-78101287D01*
X153750500Y-77888713D01*
X153717246Y-77678757D01*
X153651557Y-77476588D01*
X153555051Y-77287184D01*
X153555049Y-77287181D01*
X153555048Y-77287179D01*
X153554702Y-77286703D01*
X153554700Y-77286699D01*
X153430112Y-77115216D01*
X153279782Y-76964886D01*
X153107824Y-76839953D01*
X153107258Y-76839606D01*
X153105627Y-76838357D01*
X153103901Y-76837103D01*
X153103932Y-76837059D01*
X153086960Y-76824062D01*
X153076683Y-76814357D01*
X153041457Y-76754017D01*
X153044445Y-76684212D01*
X153080613Y-76630493D01*
X153087783Y-76624281D01*
X153104187Y-76612275D01*
X153107816Y-76610051D01*
X153107817Y-76610050D01*
X153129789Y-76594086D01*
X153279786Y-76485109D01*
X153279787Y-76485106D01*
X153279790Y-76485105D01*
X153279792Y-76485104D01*
X153279793Y-76485102D01*
X153279847Y-76485063D01*
X153280605Y-76484290D01*
X153430104Y-76334792D01*
X153430106Y-76334788D01*
X153430109Y-76334786D01*
X153555048Y-76162820D01*
X153555047Y-76162820D01*
X153555051Y-76162816D01*
X153555053Y-76162810D01*
X153575445Y-76134744D01*
X153583730Y-76106529D01*
X153651557Y-75973412D01*
X153717246Y-75771243D01*
X153750500Y-75561287D01*
X153750500Y-75348713D01*
X153717246Y-75138757D01*
X153651557Y-74936588D01*
X153555051Y-74747184D01*
X153555049Y-74747181D01*
X153555048Y-74747179D01*
X153554702Y-74746703D01*
X153554700Y-74746699D01*
X153430112Y-74575216D01*
X153279782Y-74424886D01*
X153107824Y-74299953D01*
X153107258Y-74299606D01*
X153105627Y-74298357D01*
X153103901Y-74297103D01*
X153103932Y-74297059D01*
X153086960Y-74284062D01*
X153076683Y-74274357D01*
X153041457Y-74214017D01*
X153044445Y-74144212D01*
X153080613Y-74090493D01*
X153087783Y-74084281D01*
X153104187Y-74072275D01*
X153107816Y-74070051D01*
X153107817Y-74070050D01*
X153129789Y-74054086D01*
X153279786Y-73945109D01*
X153279787Y-73945106D01*
X153279790Y-73945105D01*
X153279792Y-73945104D01*
X153279793Y-73945102D01*
X153279847Y-73945063D01*
X153280605Y-73944290D01*
X153430104Y-73794792D01*
X153430106Y-73794788D01*
X153430109Y-73794786D01*
X153555048Y-73622820D01*
X153555047Y-73622820D01*
X153555051Y-73622816D01*
X153555053Y-73622810D01*
X153575445Y-73594744D01*
X153583730Y-73566529D01*
X153651557Y-73433412D01*
X153717246Y-73231243D01*
X153750500Y-73021287D01*
X153750500Y-72808713D01*
X153717246Y-72598757D01*
X153651557Y-72396588D01*
X153555051Y-72207184D01*
X153555049Y-72207181D01*
X153555048Y-72207179D01*
X153554702Y-72206703D01*
X153554700Y-72206699D01*
X153430112Y-72035216D01*
X153279782Y-71884886D01*
X153107824Y-71759953D01*
X153107258Y-71759606D01*
X153105627Y-71758357D01*
X153103901Y-71757103D01*
X153103932Y-71757059D01*
X153086960Y-71744062D01*
X153076683Y-71734357D01*
X153041457Y-71674017D01*
X153044445Y-71604212D01*
X153080613Y-71550493D01*
X153087783Y-71544281D01*
X153104187Y-71532275D01*
X153107816Y-71530051D01*
X153107817Y-71530050D01*
X153129789Y-71514086D01*
X153279786Y-71405109D01*
X153279787Y-71405106D01*
X153279790Y-71405105D01*
X153279792Y-71405104D01*
X153279793Y-71405102D01*
X153279847Y-71405063D01*
X153280605Y-71404290D01*
X153430104Y-71254792D01*
X153430106Y-71254788D01*
X153430109Y-71254786D01*
X153555048Y-71082820D01*
X153555047Y-71082820D01*
X153555051Y-71082816D01*
X153555053Y-71082810D01*
X153575445Y-71054744D01*
X153583730Y-71026529D01*
X153651557Y-70893412D01*
X153717246Y-70691243D01*
X153750500Y-70481287D01*
X153750500Y-70268713D01*
X153717246Y-70058757D01*
X153651557Y-69856588D01*
X153555051Y-69667184D01*
X153555049Y-69667181D01*
X153555048Y-69667179D01*
X153554702Y-69666703D01*
X153554700Y-69666699D01*
X153430112Y-69495216D01*
X153279782Y-69344886D01*
X153107824Y-69219953D01*
X153107258Y-69219606D01*
X153105627Y-69218357D01*
X153103901Y-69217103D01*
X153103932Y-69217059D01*
X153086960Y-69204062D01*
X153076683Y-69194357D01*
X153041457Y-69134017D01*
X153044445Y-69064212D01*
X153080613Y-69010493D01*
X153087783Y-69004281D01*
X153104187Y-68992275D01*
X153107816Y-68990051D01*
X153107817Y-68990050D01*
X153129789Y-68974086D01*
X153279786Y-68865109D01*
X153279787Y-68865106D01*
X153279790Y-68865105D01*
X153279792Y-68865104D01*
X153279793Y-68865102D01*
X153279847Y-68865063D01*
X153280605Y-68864290D01*
X153430104Y-68714792D01*
X153430106Y-68714788D01*
X153430109Y-68714786D01*
X153555048Y-68542820D01*
X153555047Y-68542820D01*
X153555051Y-68542816D01*
X153555053Y-68542810D01*
X153575445Y-68514744D01*
X153583730Y-68486529D01*
X153651557Y-68353412D01*
X153717246Y-68151243D01*
X153750500Y-67941287D01*
X153750500Y-67728713D01*
X153717246Y-67518757D01*
X153651557Y-67316588D01*
X153555051Y-67127184D01*
X153555049Y-67127181D01*
X153555048Y-67127179D01*
X153554702Y-67126703D01*
X153554700Y-67126699D01*
X153430112Y-66955216D01*
X153279782Y-66804886D01*
X153107824Y-66679953D01*
X153107258Y-66679606D01*
X153105627Y-66678357D01*
X153103901Y-66677103D01*
X153103932Y-66677059D01*
X153086960Y-66664062D01*
X153076683Y-66654357D01*
X153041457Y-66594017D01*
X153044445Y-66524212D01*
X153080613Y-66470493D01*
X153087783Y-66464281D01*
X153104187Y-66452275D01*
X153107816Y-66450051D01*
X153107817Y-66450050D01*
X153129789Y-66434086D01*
X153279786Y-66325109D01*
X153279787Y-66325106D01*
X153279790Y-66325105D01*
X153279792Y-66325104D01*
X153279793Y-66325102D01*
X153279847Y-66325063D01*
X153280605Y-66324290D01*
X153430104Y-66174792D01*
X153430106Y-66174788D01*
X153430109Y-66174786D01*
X153555048Y-66002820D01*
X153555047Y-66002820D01*
X153555051Y-66002816D01*
X153555053Y-66002810D01*
X153575445Y-65974744D01*
X153583730Y-65946529D01*
X153651557Y-65813412D01*
X153717246Y-65611243D01*
X153750500Y-65401287D01*
X153750500Y-65188713D01*
X153717246Y-64978757D01*
X153651557Y-64776588D01*
X153555051Y-64587184D01*
X153555049Y-64587181D01*
X153555048Y-64587179D01*
X153554702Y-64586703D01*
X153554700Y-64586699D01*
X153430112Y-64415216D01*
X153279782Y-64264886D01*
X153107824Y-64139953D01*
X153107258Y-64139606D01*
X153105627Y-64138357D01*
X153103901Y-64137103D01*
X153103932Y-64137059D01*
X153086960Y-64124062D01*
X153076683Y-64114357D01*
X153041457Y-64054017D01*
X153044445Y-63984212D01*
X153080613Y-63930493D01*
X153087783Y-63924281D01*
X153104187Y-63912275D01*
X153107816Y-63910051D01*
X153107817Y-63910050D01*
X153129789Y-63894086D01*
X153279786Y-63785109D01*
X153279787Y-63785106D01*
X153279790Y-63785105D01*
X153279792Y-63785104D01*
X153279793Y-63785102D01*
X153279847Y-63785063D01*
X153280605Y-63784290D01*
X153430104Y-63634792D01*
X153430106Y-63634788D01*
X153430109Y-63634786D01*
X153555048Y-63462820D01*
X153555047Y-63462820D01*
X153555051Y-63462816D01*
X153555053Y-63462810D01*
X153575445Y-63434744D01*
X153583730Y-63406529D01*
X153651557Y-63273412D01*
X153717246Y-63071243D01*
X153750500Y-62861287D01*
X153750500Y-62648713D01*
X153717246Y-62438757D01*
X153651557Y-62236588D01*
X153555051Y-62047184D01*
X153555049Y-62047181D01*
X153555048Y-62047179D01*
X153554702Y-62046703D01*
X153554700Y-62046699D01*
X153430112Y-61875216D01*
X153279782Y-61724886D01*
X153107824Y-61599953D01*
X153107258Y-61599606D01*
X153105627Y-61598357D01*
X153103901Y-61597103D01*
X153103932Y-61597059D01*
X153086960Y-61584062D01*
X153076683Y-61574357D01*
X153041457Y-61514017D01*
X153044445Y-61444212D01*
X153080613Y-61390493D01*
X153087783Y-61384281D01*
X153104187Y-61372275D01*
X153107816Y-61370051D01*
X153107817Y-61370050D01*
X153129789Y-61354086D01*
X153279786Y-61245109D01*
X153279787Y-61245106D01*
X153279790Y-61245105D01*
X153279792Y-61245104D01*
X153279793Y-61245102D01*
X153279847Y-61245063D01*
X153280605Y-61244290D01*
X153430104Y-61094792D01*
X153430106Y-61094788D01*
X153430109Y-61094786D01*
X153555048Y-60922820D01*
X153555047Y-60922820D01*
X153555051Y-60922816D01*
X153555053Y-60922810D01*
X153575445Y-60894744D01*
X153583730Y-60866529D01*
X153651557Y-60733412D01*
X153717246Y-60531243D01*
X153750500Y-60321287D01*
X153750500Y-60108713D01*
X153717246Y-59898757D01*
X153651557Y-59696588D01*
X153555051Y-59507184D01*
X153555049Y-59507181D01*
X153555048Y-59507179D01*
X153554702Y-59506703D01*
X153554700Y-59506699D01*
X153430112Y-59335216D01*
X153279782Y-59184886D01*
X153107824Y-59059953D01*
X153107258Y-59059606D01*
X153105627Y-59058357D01*
X153103901Y-59057103D01*
X153103932Y-59057059D01*
X153086960Y-59044062D01*
X153076683Y-59034357D01*
X153041457Y-58974017D01*
X153044445Y-58904212D01*
X153080612Y-58850495D01*
X153087783Y-58844281D01*
X153104201Y-58832266D01*
X153107810Y-58830054D01*
X153107816Y-58830051D01*
X153162138Y-58790584D01*
X153279786Y-58705109D01*
X153279787Y-58705107D01*
X153279847Y-58705063D01*
X153280605Y-58704290D01*
X153430104Y-58554792D01*
X153430106Y-58554788D01*
X153430109Y-58554786D01*
X153555048Y-58382820D01*
X153555047Y-58382820D01*
X153555051Y-58382816D01*
X153555053Y-58382810D01*
X153575445Y-58354744D01*
X153583730Y-58326529D01*
X153651557Y-58193412D01*
X153717246Y-57991243D01*
X153750500Y-57781287D01*
X153750500Y-57568713D01*
X153745428Y-57536693D01*
X153726709Y-57418505D01*
X153717246Y-57358757D01*
X153651557Y-57156588D01*
X153555051Y-56967184D01*
X153555049Y-56967181D01*
X153555048Y-56967179D01*
X153554702Y-56966703D01*
X153554700Y-56966699D01*
X153430112Y-56795216D01*
X153279788Y-56644892D01*
X153279786Y-56644890D01*
X153107817Y-56519949D01*
X153107812Y-56519946D01*
X153106584Y-56519194D01*
X153086242Y-56503624D01*
X153076127Y-56494071D01*
X153040906Y-56433734D01*
X153043896Y-56363929D01*
X153080066Y-56310210D01*
X153087122Y-56304096D01*
X153103537Y-56292083D01*
X153107542Y-56289628D01*
X153107555Y-56289622D01*
X153129119Y-56273953D01*
X153155858Y-56264412D01*
X153161717Y-56250269D01*
X152656149Y-55744702D01*
X152622664Y-55683379D01*
X152627648Y-55613688D01*
X152669519Y-55557754D01*
X152681822Y-55549639D01*
X152707007Y-55535099D01*
X152800099Y-55442007D01*
X152814634Y-55416830D01*
X152865199Y-55368616D01*
X152933805Y-55355391D01*
X152998671Y-55381358D01*
X153009702Y-55391149D01*
X153515269Y-55896717D01*
X153515269Y-55896716D01*
X153515270Y-55896717D01*
X153515270Y-55896716D01*
X153528738Y-55891137D01*
X153534955Y-55869967D01*
X153538954Y-55864118D01*
X153554429Y-55842820D01*
X153554622Y-55842554D01*
X153651095Y-55653217D01*
X153716757Y-55451130D01*
X153716757Y-55451127D01*
X153750000Y-55241246D01*
X153750000Y-55028753D01*
X153736260Y-54942007D01*
X153718284Y-54828511D01*
X153718283Y-54828505D01*
X153718283Y-54828506D01*
X153716756Y-54818865D01*
X153689473Y-54734898D01*
X153651095Y-54616782D01*
X153554624Y-54427449D01*
X153515270Y-54373282D01*
X153515269Y-54373282D01*
X153515268Y-54373282D01*
X153009702Y-54878849D01*
X152948379Y-54912334D01*
X152878687Y-54907350D01*
X152822754Y-54865478D01*
X152814634Y-54853169D01*
X152800099Y-54827993D01*
X152707007Y-54734901D01*
X152707004Y-54734899D01*
X152707000Y-54734896D01*
X152681828Y-54720363D01*
X152633613Y-54669796D01*
X152620391Y-54601189D01*
X152646359Y-54536324D01*
X152656135Y-54525310D01*
X153161716Y-54019728D01*
X153161715Y-54019727D01*
X153127934Y-53995184D01*
X153127888Y-53995151D01*
X153107547Y-53980373D01*
X153107547Y-53980372D01*
X153106190Y-53979681D01*
X153098690Y-53974333D01*
X153095977Y-53970878D01*
X153085539Y-53963521D01*
X153076129Y-53954634D01*
X153055612Y-53919486D01*
X153055533Y-53919386D01*
X153055529Y-53919344D01*
X153040905Y-53894292D01*
X153043897Y-53824487D01*
X153080070Y-53770767D01*
X153087084Y-53764690D01*
X153104083Y-53753282D01*
X153103663Y-53752596D01*
X153107814Y-53750052D01*
X153107813Y-53750052D01*
X153107816Y-53750051D01*
X153169593Y-53705167D01*
X153269195Y-53632803D01*
X153291348Y-53619977D01*
X153321772Y-53606342D01*
X153372480Y-53595500D01*
X153878541Y-53595500D01*
X153878542Y-53595500D01*
X153893848Y-53592454D01*
X153909562Y-53589329D01*
X153909563Y-53589328D01*
X153909566Y-53589328D01*
X153975188Y-53576275D01*
X154071836Y-53557051D01*
X154125165Y-53534961D01*
X154253914Y-53481632D01*
X154417782Y-53372139D01*
X154557139Y-53232782D01*
X154557139Y-53232780D01*
X154567347Y-53222573D01*
X154567349Y-53222570D01*
X154942778Y-52847141D01*
X154942782Y-52847139D01*
X155082139Y-52707782D01*
X155191632Y-52543914D01*
X155267051Y-52361835D01*
X155290100Y-52245963D01*
X155305500Y-52168543D01*
X155305500Y-49666875D01*
X155312814Y-49641964D01*
X155313480Y-49622113D01*
X155322458Y-49609120D01*
X155325185Y-49599836D01*
X155343588Y-49578544D01*
X155353202Y-49564634D01*
X155417694Y-49537754D01*
X155486481Y-49550008D01*
X155535521Y-49593952D01*
X155535946Y-49594613D01*
X155553895Y-49640914D01*
X155554388Y-49643817D01*
X155555356Y-49650677D01*
X155556135Y-49657582D01*
X155556722Y-49664530D01*
X155574708Y-49984802D01*
X155574854Y-49988273D01*
X155574951Y-49991726D01*
X155575000Y-49995208D01*
X155575000Y-98594790D01*
X155574951Y-98598272D01*
X155574854Y-98601725D01*
X155574708Y-98605196D01*
X155556721Y-98925473D01*
X155556137Y-98932394D01*
X155555361Y-98939286D01*
X155554388Y-98946183D01*
X155501533Y-99257261D01*
X155500176Y-99264082D01*
X155498629Y-99270860D01*
X155496892Y-99277596D01*
X155409539Y-99580802D01*
X155407428Y-99587425D01*
X155405130Y-99593993D01*
X155402648Y-99600495D01*
X155281902Y-99892003D01*
X155279067Y-99898340D01*
X155276057Y-99904592D01*
X155272858Y-99910784D01*
X155120219Y-100186961D01*
X155116683Y-100192955D01*
X155112983Y-100198843D01*
X155109122Y-100204622D01*
X154926548Y-100461936D01*
X154922371Y-100467487D01*
X154918031Y-100472930D01*
X154913538Y-100478251D01*
X154703270Y-100713541D01*
X154698491Y-100718595D01*
X154693595Y-100723491D01*
X154688541Y-100728270D01*
X154453251Y-100938538D01*
X154447930Y-100943031D01*
X154442487Y-100947371D01*
X154436936Y-100951547D01*
X154179627Y-101134118D01*
X154173859Y-101137973D01*
X154167966Y-101141677D01*
X154161960Y-101145221D01*
X154056663Y-101203417D01*
X154027656Y-101214958D01*
X153998145Y-101222570D01*
X153967177Y-101226500D01*
X148292824Y-101226500D01*
X148261853Y-101222570D01*
X148232340Y-101214957D01*
X148203333Y-101203415D01*
X148098037Y-101145219D01*
X148092043Y-101141683D01*
X148086155Y-101137983D01*
X148080376Y-101134122D01*
X147823046Y-100951536D01*
X147817511Y-100947371D01*
X147812068Y-100943031D01*
X147806747Y-100938538D01*
X147571457Y-100728270D01*
X147566403Y-100723491D01*
X147561507Y-100718595D01*
X147556728Y-100713541D01*
X147346460Y-100478251D01*
X147341972Y-100472936D01*
X147337633Y-100467495D01*
X147333470Y-100461963D01*
X147150866Y-100204608D01*
X147147022Y-100198855D01*
X147143320Y-100192965D01*
X147139778Y-100186961D01*
X146987130Y-99910766D01*
X146983959Y-99904627D01*
X146980921Y-99898317D01*
X146978103Y-99892019D01*
X146857338Y-99600464D01*
X146854868Y-99593993D01*
X146852570Y-99587425D01*
X146850459Y-99580802D01*
X146846355Y-99566557D01*
X146763102Y-99277582D01*
X146761369Y-99270860D01*
X146759822Y-99264082D01*
X146758468Y-99257279D01*
X146717143Y-99014056D01*
X146705610Y-98946179D01*
X146704637Y-98939288D01*
X146704637Y-98939286D01*
X146703860Y-98932388D01*
X146703278Y-98925481D01*
X146698108Y-98833414D01*
X146685288Y-98605134D01*
X146685146Y-98601725D01*
X146685047Y-98598228D01*
X146685000Y-98594788D01*
X146685000Y-67945000D01*
X143685000Y-67945000D01*
X137625210Y-67945000D01*
X137621738Y-67944951D01*
X137618274Y-67944853D01*
X137614803Y-67944708D01*
X137294525Y-67926721D01*
X137287604Y-67926137D01*
X137280712Y-67925361D01*
X137273815Y-67924388D01*
X136962737Y-67871533D01*
X136955916Y-67870176D01*
X136949138Y-67868629D01*
X136942402Y-67866892D01*
X136639196Y-67779539D01*
X136632573Y-67777428D01*
X136626005Y-67775130D01*
X136619515Y-67772652D01*
X136327995Y-67651902D01*
X136321658Y-67649067D01*
X136315385Y-67646046D01*
X136309215Y-67642859D01*
X136266659Y-67619339D01*
X136036423Y-67492092D01*
X136036421Y-67492091D01*
X136036414Y-67492084D01*
X136036413Y-67492086D01*
X136033023Y-67490212D01*
X136027025Y-67486673D01*
X136021145Y-67482977D01*
X136015379Y-67479124D01*
X135992949Y-67463209D01*
X135886717Y-67387833D01*
X135886715Y-67387832D01*
X135886715Y-67387831D01*
X135758046Y-67296535D01*
X135752508Y-67292368D01*
X135750734Y-67290954D01*
X135747068Y-67288031D01*
X135741747Y-67283538D01*
X135576596Y-67135950D01*
X135576590Y-67135945D01*
X135506465Y-67073277D01*
X135501411Y-67068499D01*
X135496507Y-67063595D01*
X135491728Y-67058541D01*
X135399391Y-66955216D01*
X135281446Y-66823235D01*
X135276959Y-66817920D01*
X135272622Y-66812480D01*
X135268451Y-66806936D01*
X135085878Y-66549624D01*
X135082016Y-66543845D01*
X135078311Y-66537949D01*
X135074773Y-66531952D01*
X135070495Y-66524212D01*
X135058491Y-66502491D01*
X135038287Y-66465934D01*
X134948866Y-66304140D01*
X134948865Y-66304138D01*
X134922142Y-66255787D01*
X134918945Y-66249598D01*
X134918669Y-66249025D01*
X137130000Y-66249025D01*
X137130000Y-66453671D01*
X137157534Y-66627512D01*
X137162009Y-66655766D01*
X137225244Y-66850380D01*
X137244335Y-66887847D01*
X137318144Y-67032706D01*
X137318147Y-67032709D01*
X137350517Y-67077263D01*
X137350521Y-67077268D01*
X137350523Y-67077270D01*
X137350524Y-67077271D01*
X137893503Y-66534291D01*
X137954824Y-66500808D01*
X138024515Y-66505792D01*
X138080449Y-66547663D01*
X138088567Y-66559971D01*
X138109920Y-66596955D01*
X138184394Y-66671429D01*
X138184395Y-66671430D01*
X138184397Y-66671431D01*
X138221373Y-66692779D01*
X138269588Y-66743345D01*
X138282812Y-66811952D01*
X138256844Y-66876817D01*
X138247054Y-66887847D01*
X137704075Y-67430822D01*
X137704076Y-67430822D01*
X137704076Y-67430823D01*
X137748650Y-67463208D01*
X137805322Y-67492084D01*
X137930963Y-67556102D01*
X137930965Y-67556102D01*
X137930968Y-67556104D01*
X138125582Y-67619339D01*
X138327683Y-67651349D01*
X138532316Y-67651349D01*
X138532317Y-67651349D01*
X138734417Y-67619339D01*
X138929031Y-67556104D01*
X139111349Y-67463208D01*
X139155921Y-67430823D01*
X138612945Y-66887847D01*
X138579460Y-66826524D01*
X138584444Y-66756832D01*
X138626316Y-66700899D01*
X138638618Y-66692783D01*
X138675606Y-66671429D01*
X138750080Y-66596955D01*
X138771429Y-66559976D01*
X138821994Y-66511762D01*
X138890600Y-66498537D01*
X138955466Y-66524504D01*
X138966497Y-66534295D01*
X139509473Y-67077271D01*
X139509473Y-67077270D01*
X139509474Y-67077271D01*
X139509474Y-67077270D01*
X139522943Y-67071691D01*
X139529159Y-67050523D01*
X139533159Y-67044673D01*
X139541857Y-67032701D01*
X139581340Y-66955213D01*
X139634755Y-66850380D01*
X139697990Y-66655766D01*
X139730000Y-66453666D01*
X139730000Y-66249031D01*
X139697990Y-66046931D01*
X139634755Y-65852317D01*
X139634753Y-65852314D01*
X139634753Y-65852312D01*
X139541859Y-65669999D01*
X139533156Y-65658021D01*
X139523615Y-65631282D01*
X139509473Y-65625424D01*
X138966497Y-66168402D01*
X138905174Y-66201887D01*
X138835483Y-66196903D01*
X138779549Y-66155032D01*
X138771430Y-66142723D01*
X138750080Y-66105743D01*
X138675606Y-66031269D01*
X138638625Y-66009918D01*
X138590410Y-65959352D01*
X138577186Y-65890745D01*
X138603154Y-65825880D01*
X138612936Y-65814858D01*
X139155922Y-65271873D01*
X139155921Y-65271872D01*
X139155920Y-65271871D01*
X139155919Y-65271870D01*
X139155914Y-65271866D01*
X139111360Y-65239496D01*
X139111357Y-65239493D01*
X139011695Y-65188713D01*
X138929031Y-65146593D01*
X138734417Y-65083358D01*
X138734411Y-65083357D01*
X138532322Y-65051349D01*
X138532317Y-65051349D01*
X138327683Y-65051349D01*
X138327678Y-65051349D01*
X138125587Y-65083357D01*
X138125585Y-65083357D01*
X138125582Y-65083358D01*
X138028275Y-65114975D01*
X137930963Y-65146594D01*
X137748640Y-65239494D01*
X137704077Y-65271871D01*
X137704077Y-65271872D01*
X137704077Y-65271873D01*
X138043447Y-65611243D01*
X138247055Y-65814850D01*
X138280540Y-65876173D01*
X138275556Y-65945864D01*
X138233685Y-66001798D01*
X138221374Y-66009918D01*
X138184397Y-66031266D01*
X138184392Y-66031270D01*
X138109921Y-66105741D01*
X138109915Y-66105749D01*
X138088568Y-66142723D01*
X138038001Y-66190938D01*
X137969393Y-66204160D01*
X137904529Y-66178192D01*
X137893501Y-66168403D01*
X137350524Y-65625426D01*
X137350523Y-65625426D01*
X137350522Y-65625426D01*
X137318145Y-65669989D01*
X137225245Y-65852312D01*
X137201367Y-65925802D01*
X137162009Y-66046931D01*
X137162008Y-66046934D01*
X137162008Y-66046936D01*
X137130000Y-66249025D01*
X134918669Y-66249025D01*
X134915930Y-66243336D01*
X134913101Y-66237015D01*
X134792338Y-65945464D01*
X134789868Y-65938993D01*
X134787570Y-65932425D01*
X134785459Y-65925802D01*
X134753494Y-65814850D01*
X134698102Y-65622582D01*
X134696369Y-65615860D01*
X134694822Y-65609082D01*
X134693468Y-65602279D01*
X134640607Y-65291163D01*
X134639636Y-65284277D01*
X134638861Y-65277391D01*
X134638278Y-65270476D01*
X134631321Y-65146593D01*
X134620288Y-64950134D01*
X134620146Y-64946756D01*
X134620047Y-64943228D01*
X134620000Y-64939788D01*
X134620000Y-58461121D01*
X134625021Y-58426194D01*
X134628207Y-58415341D01*
X134665977Y-58356560D01*
X134729531Y-58327531D01*
X134798677Y-58337465D01*
X134801503Y-58338755D01*
X134843291Y-58372923D01*
X134846319Y-58373160D01*
X134846320Y-58373162D01*
X135390106Y-57829375D01*
X135451426Y-57795893D01*
X135521117Y-57800877D01*
X135577051Y-57842748D01*
X135585171Y-57855059D01*
X135609927Y-57897938D01*
X135609929Y-57897941D01*
X135609930Y-57897942D01*
X135675095Y-57963107D01*
X135675096Y-57963108D01*
X135675098Y-57963109D01*
X135717975Y-57987864D01*
X135766190Y-58038431D01*
X135779414Y-58107038D01*
X135753446Y-58171902D01*
X135743656Y-58182932D01*
X135199873Y-58726713D01*
X135199873Y-58726714D01*
X135199873Y-58726715D01*
X135234858Y-58752133D01*
X135410164Y-58841455D01*
X135597294Y-58902258D01*
X135791618Y-58933037D01*
X135988381Y-58933037D01*
X135988382Y-58933037D01*
X136182705Y-58902258D01*
X136369835Y-58841455D01*
X136545143Y-58752132D01*
X136547527Y-58750399D01*
X136548587Y-58750021D01*
X136549296Y-58749587D01*
X136549387Y-58749735D01*
X136574267Y-58740857D01*
X136580126Y-58726714D01*
X136036343Y-58182932D01*
X136002858Y-58121609D01*
X136007842Y-58051918D01*
X136049713Y-57995984D01*
X136062017Y-57987867D01*
X136104905Y-57963107D01*
X136170070Y-57897942D01*
X136194827Y-57855060D01*
X136245393Y-57806846D01*
X136314000Y-57793622D01*
X136378865Y-57819590D01*
X136389895Y-57829380D01*
X136933677Y-58373163D01*
X136933677Y-58373162D01*
X136933678Y-58373163D01*
X136933678Y-58373162D01*
X137008047Y-58342358D01*
X137077517Y-58334889D01*
X137139996Y-58366164D01*
X137175648Y-58426253D01*
X137179465Y-58453958D01*
X137179500Y-58455424D01*
X137179500Y-58480906D01*
X137179501Y-58480913D01*
X137180281Y-58488176D01*
X137180282Y-58488188D01*
X137185908Y-58540520D01*
X137185908Y-58540521D01*
X137224041Y-58642761D01*
X137236202Y-58675365D01*
X137236203Y-58675366D01*
X137236204Y-58675368D01*
X137236210Y-58675376D01*
X137238590Y-58679080D01*
X137238596Y-58679089D01*
X137238606Y-58679105D01*
X137241511Y-58682457D01*
X137306433Y-58769182D01*
X137322454Y-58790583D01*
X137365541Y-58822838D01*
X137390496Y-58847794D01*
X137404121Y-58865995D01*
X137426880Y-58918267D01*
X137427526Y-58921844D01*
X137429500Y-58943882D01*
X137429500Y-60121288D01*
X137424476Y-60156227D01*
X137417063Y-60181470D01*
X137385769Y-60234212D01*
X137287286Y-60332695D01*
X137195187Y-60482011D01*
X137195152Y-60482119D01*
X137151050Y-60615206D01*
X137151044Y-60615224D01*
X137140001Y-60648552D01*
X137140001Y-60648553D01*
X137140000Y-60648553D01*
X137139230Y-60656084D01*
X137139229Y-60656090D01*
X137129500Y-60751322D01*
X137129500Y-60751330D01*
X137129500Y-60751332D01*
X137129500Y-61951350D01*
X137129501Y-61951367D01*
X137140000Y-62054145D01*
X137140001Y-62054148D01*
X137195185Y-62220680D01*
X137195186Y-62220683D01*
X137287288Y-62370005D01*
X137411344Y-62494061D01*
X137560666Y-62586163D01*
X137727203Y-62641348D01*
X137829991Y-62651849D01*
X139030008Y-62651848D01*
X139132797Y-62641348D01*
X139299334Y-62586163D01*
X139448656Y-62494061D01*
X139572712Y-62370005D01*
X139664814Y-62220683D01*
X139719999Y-62054146D01*
X139730500Y-61951358D01*
X139730499Y-60751341D01*
X139719999Y-60648552D01*
X139664814Y-60482015D01*
X139572712Y-60332693D01*
X139479426Y-60239407D01*
X139458273Y-60211149D01*
X139445666Y-60188059D01*
X139430500Y-60128636D01*
X139430500Y-58950615D01*
X139435523Y-58915680D01*
X139442233Y-58892828D01*
X139480007Y-58834050D01*
X139486901Y-58828495D01*
X139494814Y-58822571D01*
X139537546Y-58790583D01*
X139573238Y-58742903D01*
X139607787Y-58711444D01*
X139610388Y-58709852D01*
X139615264Y-58707190D01*
X139617611Y-58705432D01*
X139622552Y-58702410D01*
X139636661Y-58698603D01*
X139665269Y-58686149D01*
X139666767Y-58685879D01*
X139668848Y-58685504D01*
X139690847Y-58683537D01*
X141905160Y-58683537D01*
X141940092Y-58688558D01*
X141965336Y-58695971D01*
X142018082Y-58727267D01*
X142027786Y-58736971D01*
X142160676Y-58833519D01*
X142193390Y-58857287D01*
X142256515Y-58889451D01*
X142309607Y-58916503D01*
X142369327Y-58946932D01*
X142369326Y-58946932D01*
X142376650Y-58950663D01*
X142380403Y-58951722D01*
X142412538Y-58962163D01*
X142480135Y-58984126D01*
X142480136Y-58984127D01*
X142502871Y-58991514D01*
X142570465Y-59013477D01*
X142633981Y-59023537D01*
X142772648Y-59045500D01*
X142772649Y-59045500D01*
X142977351Y-59045500D01*
X142977352Y-59045500D01*
X143179534Y-59013477D01*
X143374219Y-58950220D01*
X143556610Y-58857287D01*
X143663456Y-58779658D01*
X143694671Y-58763189D01*
X143724039Y-58752711D01*
X143765707Y-58745500D01*
X145513887Y-58745500D01*
X145548821Y-58750523D01*
X145578744Y-58759309D01*
X145616695Y-58777968D01*
X145634060Y-58790584D01*
X145695640Y-58835324D01*
X145801872Y-58889452D01*
X145854962Y-58916503D01*
X145871579Y-58924970D01*
X145873177Y-58925906D01*
X145876865Y-58927692D01*
X145878890Y-58928698D01*
X145882656Y-58929760D01*
X145925206Y-58943584D01*
X145982385Y-58962163D01*
X145982386Y-58962164D01*
X146012496Y-58971947D01*
X146072715Y-58991514D01*
X146173722Y-59007512D01*
X146274898Y-59023537D01*
X146274899Y-59023537D01*
X146479601Y-59023537D01*
X146479602Y-59023537D01*
X146681784Y-58991514D01*
X146876469Y-58928257D01*
X147058860Y-58835324D01*
X147182215Y-58745702D01*
X147224463Y-58715008D01*
X147224465Y-58715005D01*
X147224469Y-58715003D01*
X147224476Y-58714996D01*
X147224529Y-58714957D01*
X147225283Y-58714188D01*
X147369216Y-58570256D01*
X147369218Y-58570252D01*
X147369221Y-58570250D01*
X147415846Y-58506073D01*
X147480958Y-58416455D01*
X147480959Y-58416452D01*
X147480962Y-58416449D01*
X147489537Y-58404647D01*
X147582470Y-58222256D01*
X147645727Y-58027571D01*
X147677750Y-57825389D01*
X147677750Y-57620685D01*
X147669518Y-57568713D01*
X147645727Y-57418502D01*
X147582468Y-57223813D01*
X147548213Y-57156585D01*
X147489537Y-57041427D01*
X147435597Y-56967184D01*
X147369221Y-56875823D01*
X147224463Y-56731065D01*
X147218601Y-56726806D01*
X147069459Y-56618450D01*
X147069455Y-56618447D01*
X147058863Y-56610752D01*
X147058862Y-56610751D01*
X147058860Y-56610750D01*
X147030421Y-56596259D01*
X147001904Y-56581728D01*
X147001903Y-56581728D01*
X146876473Y-56517818D01*
X146681784Y-56454559D01*
X146681782Y-56454558D01*
X146681780Y-56454558D01*
X146681779Y-56454557D01*
X146507245Y-56426915D01*
X146490659Y-56424288D01*
X146479604Y-56422537D01*
X146479602Y-56422537D01*
X146274898Y-56422537D01*
X146274897Y-56422537D01*
X146250577Y-56426388D01*
X146250576Y-56426387D01*
X146072718Y-56454558D01*
X145878027Y-56517817D01*
X145878014Y-56517823D01*
X145695641Y-56610748D01*
X145558566Y-56710338D01*
X145527355Y-56726806D01*
X145497983Y-56737287D01*
X145456309Y-56744500D01*
X143768592Y-56744500D01*
X143733656Y-56739477D01*
X143703731Y-56730690D01*
X143665783Y-56712031D01*
X143567210Y-56640414D01*
X143567208Y-56640412D01*
X143556613Y-56632715D01*
X143556612Y-56632714D01*
X143556610Y-56632713D01*
X143528617Y-56618450D01*
X143444312Y-56575494D01*
X143444312Y-56575493D01*
X143444310Y-56575493D01*
X143374228Y-56539783D01*
X143374221Y-56539780D01*
X143233556Y-56494075D01*
X143179534Y-56476522D01*
X143179532Y-56476521D01*
X143179530Y-56476521D01*
X143179529Y-56476520D01*
X143004995Y-56448878D01*
X142983698Y-56445505D01*
X142977354Y-56444500D01*
X142977352Y-56444500D01*
X142772648Y-56444500D01*
X142772647Y-56444500D01*
X142748327Y-56448351D01*
X142748326Y-56448350D01*
X142570468Y-56476521D01*
X142437868Y-56519606D01*
X142375776Y-56539781D01*
X142193389Y-56632713D01*
X142193386Y-56632714D01*
X142193386Y-56632715D01*
X142171827Y-56648378D01*
X142140620Y-56664845D01*
X142131643Y-56668048D01*
X142111249Y-56675324D01*
X142069579Y-56682537D01*
X139697581Y-56682537D01*
X139662641Y-56677513D01*
X139640821Y-56671105D01*
X139591291Y-56642908D01*
X139588629Y-56640431D01*
X139573836Y-56623967D01*
X139539570Y-56578195D01*
X139537993Y-56575964D01*
X139537547Y-56575493D01*
X139537546Y-56575491D01*
X139489844Y-56539781D01*
X139489842Y-56539780D01*
X139489842Y-56539779D01*
X139422337Y-56489244D01*
X139422335Y-56489243D01*
X139422333Y-56489241D01*
X139422328Y-56489239D01*
X139372844Y-56470783D01*
X139337497Y-56444321D01*
X139235583Y-56433365D01*
X139230742Y-56432537D01*
X139227881Y-56432537D01*
X139227873Y-56432537D01*
X139227864Y-56432537D01*
X137632129Y-56432537D01*
X137632123Y-56432537D01*
X137630192Y-56432696D01*
X137628545Y-56432922D01*
X137572516Y-56438945D01*
X137471773Y-56476520D01*
X137437666Y-56489241D01*
X137437665Y-56489242D01*
X137322456Y-56575487D01*
X137322450Y-56575493D01*
X137236205Y-56690702D01*
X137236203Y-56690705D01*
X137185907Y-56825553D01*
X137179501Y-56885153D01*
X137179500Y-56885176D01*
X137179500Y-56931791D01*
X137160535Y-56997697D01*
X137159808Y-56998855D01*
X137156629Y-57009683D01*
X137103825Y-57055438D01*
X137034667Y-57065382D01*
X137000805Y-57055440D01*
X136997984Y-57054151D01*
X136949180Y-57014245D01*
X136933679Y-56992910D01*
X136933677Y-56992910D01*
X136933676Y-56992910D01*
X136389895Y-57536693D01*
X136328572Y-57570178D01*
X136258881Y-57565194D01*
X136202947Y-57523323D01*
X136194827Y-57511012D01*
X136170072Y-57468135D01*
X136170068Y-57468130D01*
X136104906Y-57402968D01*
X136104898Y-57402962D01*
X136062024Y-57378209D01*
X136013808Y-57327643D01*
X136000584Y-57259036D01*
X136026552Y-57194171D01*
X136036337Y-57183146D01*
X136580125Y-56639357D01*
X136580125Y-56639356D01*
X136571169Y-56632849D01*
X136545147Y-56613943D01*
X136369839Y-56524620D01*
X136369838Y-56524619D01*
X136369835Y-56524618D01*
X136182705Y-56463815D01*
X135988382Y-56433037D01*
X135988381Y-56433037D01*
X135791619Y-56433037D01*
X135791618Y-56433037D01*
X135720374Y-56444321D01*
X135597299Y-56463814D01*
X135597297Y-56463814D01*
X135597294Y-56463815D01*
X135487447Y-56499507D01*
X135410160Y-56524619D01*
X135410153Y-56524622D01*
X135234863Y-56613935D01*
X135234775Y-56613990D01*
X135234121Y-56614474D01*
X135232495Y-56615656D01*
X135231578Y-56615983D01*
X135230326Y-56616764D01*
X135230156Y-56616491D01*
X135205730Y-56625213D01*
X135199871Y-56639357D01*
X135743657Y-57183141D01*
X135777142Y-57244464D01*
X135772158Y-57314155D01*
X135730287Y-57370089D01*
X135717976Y-57378209D01*
X135675098Y-57402964D01*
X135675093Y-57402968D01*
X135609931Y-57468130D01*
X135609927Y-57468135D01*
X135585172Y-57511013D01*
X135534605Y-57559229D01*
X135465998Y-57572451D01*
X135401133Y-57546483D01*
X135390104Y-57536694D01*
X134846321Y-56992909D01*
X134846189Y-56992909D01*
X134815574Y-57015213D01*
X134801140Y-57022614D01*
X134790509Y-57030813D01*
X134720896Y-57036791D01*
X134659101Y-57004184D01*
X134637549Y-56976234D01*
X134636026Y-56973537D01*
X134620000Y-56912564D01*
X134620000Y-52642676D01*
X141575000Y-52642676D01*
X141575000Y-52847322D01*
X141607008Y-53049411D01*
X141607009Y-53049417D01*
X141670244Y-53244031D01*
X141729944Y-53361198D01*
X141763144Y-53426357D01*
X141763147Y-53426360D01*
X141795517Y-53470914D01*
X141795521Y-53470919D01*
X141795523Y-53470921D01*
X141795524Y-53470922D01*
X142338503Y-52927942D01*
X142399824Y-52894459D01*
X142469515Y-52899443D01*
X142525449Y-52941314D01*
X142533567Y-52953622D01*
X142554920Y-52990606D01*
X142629394Y-53065080D01*
X142629395Y-53065081D01*
X142629397Y-53065082D01*
X142666373Y-53086430D01*
X142714588Y-53136996D01*
X142727812Y-53205603D01*
X142701844Y-53270468D01*
X142692054Y-53281498D01*
X142149075Y-53824473D01*
X142149076Y-53824473D01*
X142149076Y-53824474D01*
X142193650Y-53856859D01*
X142220593Y-53870587D01*
X142375963Y-53949753D01*
X142375965Y-53949753D01*
X142375968Y-53949755D01*
X142570582Y-54012990D01*
X142772683Y-54045000D01*
X142977316Y-54045000D01*
X142977317Y-54045000D01*
X143179417Y-54012990D01*
X143374031Y-53949755D01*
X143556349Y-53856859D01*
X143600921Y-53824474D01*
X143057945Y-53281498D01*
X143024460Y-53220175D01*
X143029444Y-53150483D01*
X143071316Y-53094550D01*
X143083618Y-53086434D01*
X143120606Y-53065080D01*
X143195080Y-52990606D01*
X143216429Y-52953627D01*
X143266994Y-52905413D01*
X143335600Y-52892188D01*
X143400466Y-52918155D01*
X143411497Y-52927946D01*
X143954473Y-53470922D01*
X143954473Y-53470921D01*
X143954474Y-53470922D01*
X143954474Y-53470921D01*
X143967943Y-53465342D01*
X143974159Y-53444174D01*
X143978159Y-53438324D01*
X143986857Y-53426352D01*
X144051812Y-53298873D01*
X144079755Y-53244031D01*
X144142990Y-53049417D01*
X144175000Y-52847317D01*
X144175000Y-52642682D01*
X144142990Y-52440582D01*
X144079755Y-52245968D01*
X144079753Y-52245965D01*
X144079753Y-52245963D01*
X143986859Y-52063650D01*
X143978156Y-52051672D01*
X143968615Y-52024933D01*
X143954473Y-52019075D01*
X143411497Y-52562053D01*
X143350174Y-52595538D01*
X143280483Y-52590554D01*
X143224549Y-52548683D01*
X143216430Y-52536374D01*
X143195080Y-52499394D01*
X143120606Y-52424920D01*
X143083625Y-52403569D01*
X143035410Y-52353003D01*
X143022186Y-52284396D01*
X143048154Y-52219531D01*
X143057936Y-52208509D01*
X143600922Y-51665524D01*
X143600921Y-51665523D01*
X143600920Y-51665522D01*
X143600919Y-51665521D01*
X143600914Y-51665517D01*
X143556360Y-51633147D01*
X143556357Y-51633144D01*
X143463884Y-51586027D01*
X143374031Y-51540244D01*
X143179417Y-51477009D01*
X143179411Y-51477008D01*
X142977322Y-51445000D01*
X142977317Y-51445000D01*
X142772683Y-51445000D01*
X142772678Y-51445000D01*
X142570587Y-51477008D01*
X142570585Y-51477008D01*
X142570582Y-51477009D01*
X142483990Y-51505145D01*
X142375963Y-51540245D01*
X142193640Y-51633145D01*
X142149077Y-51665522D01*
X142149077Y-51665523D01*
X142149077Y-51665524D01*
X142447089Y-51963536D01*
X142692055Y-52208501D01*
X142725540Y-52269824D01*
X142720556Y-52339515D01*
X142678685Y-52395449D01*
X142666374Y-52403569D01*
X142629397Y-52424917D01*
X142629394Y-52424920D01*
X142554921Y-52499392D01*
X142554915Y-52499400D01*
X142533568Y-52536374D01*
X142483001Y-52584589D01*
X142414393Y-52597811D01*
X142349529Y-52571843D01*
X142338501Y-52562054D01*
X141795524Y-52019077D01*
X141795523Y-52019077D01*
X141795522Y-52019077D01*
X141763145Y-52063640D01*
X141670245Y-52245963D01*
X141639848Y-52339515D01*
X141607009Y-52440582D01*
X141607008Y-52440585D01*
X141607008Y-52440587D01*
X141575000Y-52642676D01*
X134620000Y-52642676D01*
X134620000Y-49995210D01*
X134620048Y-49991766D01*
X134620049Y-49991726D01*
X134620146Y-49988239D01*
X134620288Y-49984867D01*
X134637621Y-49676222D01*
X134638277Y-49664524D01*
X134638859Y-49657618D01*
X134639643Y-49650665D01*
X134640608Y-49643834D01*
X134693471Y-49332700D01*
X134694814Y-49325947D01*
X134696378Y-49319095D01*
X134698102Y-49312418D01*
X134740018Y-49166930D01*
X134780939Y-49024885D01*
X134785468Y-49009163D01*
X134787563Y-49002592D01*
X134789882Y-48995965D01*
X134792326Y-48989562D01*
X134861286Y-48823079D01*
X134913113Y-48697953D01*
X134915923Y-48691673D01*
X134918952Y-48685382D01*
X134922122Y-48679246D01*
X135074804Y-48402990D01*
X135078302Y-48397062D01*
X135082029Y-48391131D01*
X135085833Y-48385438D01*
X135268490Y-48128007D01*
X135272617Y-48122522D01*
X135276977Y-48117054D01*
X135281421Y-48111792D01*
X135491754Y-47876428D01*
X135496499Y-47871410D01*
X135501410Y-47866499D01*
X135506428Y-47861754D01*
X135741792Y-47651421D01*
X135747054Y-47646977D01*
X135752522Y-47642617D01*
X135758007Y-47638490D01*
X136015438Y-47455833D01*
X136021131Y-47452029D01*
X136027062Y-47448302D01*
X136032990Y-47444804D01*
X136309246Y-47292122D01*
X136315382Y-47288952D01*
X136321673Y-47285923D01*
X136327969Y-47283106D01*
X136619561Y-47162327D01*
X136625978Y-47159877D01*
X136632573Y-47157569D01*
X136639166Y-47155467D01*
X136942429Y-47068098D01*
X136949145Y-47066367D01*
X136955909Y-47064823D01*
X136962721Y-47063467D01*
X137273819Y-47010610D01*
X137280685Y-47009640D01*
X137287615Y-47008859D01*
X137294501Y-47008279D01*
X137579283Y-46992286D01*
X137614801Y-46990291D01*
X137618276Y-46990146D01*
X137621738Y-46990049D01*
X137625211Y-46990000D01*
X147758174Y-46990000D01*
X147793101Y-46995021D01*
G37*
%TD.AperFunction*%
%TA.AperFunction,Conductor*%
G36*
X151910803Y-55361895D02*
G01*
X151921311Y-55362647D01*
X151941325Y-55377629D01*
X151963546Y-55389085D01*
X151974514Y-55402475D01*
X151977244Y-55404519D01*
X151981610Y-55411138D01*
X151982813Y-55412607D01*
X151984137Y-55414704D01*
X151999901Y-55442007D01*
X152092993Y-55535099D01*
X152118169Y-55549634D01*
X152166384Y-55600202D01*
X152179606Y-55668809D01*
X152153638Y-55733673D01*
X152143849Y-55744702D01*
X151638321Y-56250229D01*
X151638282Y-56250269D01*
X151638282Y-56250270D01*
X151692452Y-56289626D01*
X151692451Y-56289626D01*
X151694115Y-56290474D01*
X151701857Y-56296058D01*
X151704490Y-56299448D01*
X151714450Y-56306469D01*
X151723868Y-56315363D01*
X151759092Y-56375700D01*
X151756104Y-56445505D01*
X151719932Y-56499229D01*
X151712929Y-56505297D01*
X151695944Y-56516776D01*
X151696331Y-56517407D01*
X151692172Y-56519955D01*
X151520216Y-56644886D01*
X151369892Y-56795210D01*
X151369890Y-56795213D01*
X151244952Y-56967179D01*
X151244945Y-56967188D01*
X151244634Y-56967696D01*
X151243499Y-56969177D01*
X151242085Y-56971125D01*
X151242036Y-56971089D01*
X151229060Y-56988041D01*
X151219353Y-56998319D01*
X151159011Y-57033542D01*
X151089205Y-57030550D01*
X151035488Y-56994378D01*
X151029285Y-56987219D01*
X151017274Y-56970811D01*
X151015053Y-56967187D01*
X151015051Y-56967184D01*
X151015050Y-56967182D01*
X150890109Y-56795213D01*
X150739786Y-56644890D01*
X150739782Y-56644886D01*
X150567824Y-56519953D01*
X150567258Y-56519606D01*
X150565627Y-56518357D01*
X150563901Y-56517103D01*
X150563932Y-56517059D01*
X150546960Y-56504062D01*
X150536683Y-56494357D01*
X150501457Y-56434017D01*
X150504445Y-56364212D01*
X150540612Y-56310495D01*
X150547783Y-56304281D01*
X150564194Y-56292269D01*
X150567792Y-56290063D01*
X150567816Y-56290051D01*
X150622572Y-56250269D01*
X150739786Y-56165109D01*
X150739788Y-56165106D01*
X150739792Y-56165104D01*
X150739796Y-56165099D01*
X150739848Y-56165062D01*
X150740592Y-56164303D01*
X150890104Y-56014792D01*
X150890106Y-56014788D01*
X150890109Y-56014786D01*
X150975890Y-55896717D01*
X151015051Y-55842816D01*
X151016342Y-55840281D01*
X151020750Y-55834133D01*
X151022638Y-55832657D01*
X151031370Y-55821249D01*
X151033130Y-55819384D01*
X151040918Y-55811137D01*
X151101253Y-55775909D01*
X151171059Y-55778892D01*
X151224789Y-55815067D01*
X151230890Y-55822108D01*
X151242900Y-55838514D01*
X151245367Y-55842540D01*
X151284727Y-55896715D01*
X151284728Y-55896716D01*
X151790297Y-55391147D01*
X151812235Y-55379167D01*
X151831889Y-55363712D01*
X151842374Y-55362710D01*
X151851619Y-55357663D01*
X151876557Y-55359446D01*
X151901443Y-55357070D01*
X151910803Y-55361895D01*
G37*
%TD.AperFunction*%
%TA.AperFunction,Conductor*%
G36*
X151170791Y-53239447D02*
G01*
X151224503Y-53275612D01*
X151230707Y-53282771D01*
X151242729Y-53299193D01*
X151244949Y-53302817D01*
X151244951Y-53302820D01*
X151369890Y-53474786D01*
X151369892Y-53474788D01*
X151520216Y-53625112D01*
X151692178Y-53750048D01*
X151693031Y-53750567D01*
X151693303Y-53750865D01*
X151696311Y-53753051D01*
X151696195Y-53753209D01*
X151713741Y-53766361D01*
X151723865Y-53775921D01*
X151737665Y-53799560D01*
X151740085Y-53802216D01*
X151740439Y-53804312D01*
X151759091Y-53836259D01*
X151756105Y-53906065D01*
X151719938Y-53959785D01*
X151712614Y-53966132D01*
X151694059Y-53979432D01*
X151692440Y-53980379D01*
X151638282Y-54019726D01*
X151638281Y-54019727D01*
X152143850Y-54525296D01*
X152177335Y-54586619D01*
X152172351Y-54656311D01*
X152130479Y-54712244D01*
X152118173Y-54720362D01*
X152092996Y-54734898D01*
X152092990Y-54734903D01*
X151999903Y-54827990D01*
X151999898Y-54827996D01*
X151985362Y-54853173D01*
X151934793Y-54901387D01*
X151866185Y-54914607D01*
X151801322Y-54888637D01*
X151790296Y-54878850D01*
X151284728Y-54373282D01*
X151284727Y-54373282D01*
X151245379Y-54427440D01*
X151243368Y-54430458D01*
X151243066Y-54430256D01*
X151229233Y-54448707D01*
X151219622Y-54458881D01*
X151159276Y-54494096D01*
X151089471Y-54491096D01*
X151035760Y-54454921D01*
X151029682Y-54447905D01*
X151017425Y-54431091D01*
X151015568Y-54428034D01*
X151015100Y-54427249D01*
X150890112Y-54255216D01*
X150739782Y-54104886D01*
X150567835Y-53979961D01*
X150567827Y-53979956D01*
X150567820Y-53979951D01*
X150567812Y-53979946D01*
X150567329Y-53979651D01*
X150565839Y-53978510D01*
X150563878Y-53977086D01*
X150563913Y-53977037D01*
X150546960Y-53964063D01*
X150536676Y-53954351D01*
X150501455Y-53894011D01*
X150504447Y-53824205D01*
X150540613Y-53770493D01*
X150547783Y-53764281D01*
X150564187Y-53752275D01*
X150567816Y-53750051D01*
X150567820Y-53750048D01*
X150589789Y-53734086D01*
X150739786Y-53625109D01*
X150739787Y-53625106D01*
X150739790Y-53625105D01*
X150739792Y-53625104D01*
X150739793Y-53625102D01*
X150739847Y-53625063D01*
X150740605Y-53624290D01*
X150890104Y-53474792D01*
X150890106Y-53474788D01*
X150890109Y-53474786D01*
X151015048Y-53302820D01*
X151015047Y-53302820D01*
X151015051Y-53302816D01*
X151015053Y-53302811D01*
X151017915Y-53298873D01*
X151017915Y-53298872D01*
X151023065Y-53291784D01*
X151033229Y-53279531D01*
X151040647Y-53271678D01*
X151100985Y-53236457D01*
X151170791Y-53239447D01*
G37*
%TD.AperFunction*%
%TD*%
%TA.AperFunction,Conductor*%
%TO.N,/ISO_GND*%
G36*
X129083471Y-46990195D02*
G01*
X129124136Y-46992478D01*
X129408949Y-47008473D01*
X129422748Y-47010027D01*
X129740695Y-47064049D01*
X129754252Y-47067143D01*
X130064148Y-47156423D01*
X130077272Y-47161016D01*
X130375215Y-47284427D01*
X130387737Y-47290456D01*
X130670006Y-47446461D01*
X130681779Y-47453859D01*
X130944789Y-47640475D01*
X130955649Y-47649135D01*
X131196127Y-47864039D01*
X131205960Y-47873872D01*
X131420859Y-48114344D01*
X131429528Y-48125216D01*
X131616139Y-48388219D01*
X131623538Y-48399993D01*
X131779539Y-48682255D01*
X131785572Y-48694784D01*
X131908983Y-48992727D01*
X131913576Y-49005851D01*
X132002856Y-49315747D01*
X132005950Y-49329304D01*
X132059970Y-49647240D01*
X132061527Y-49661058D01*
X132079805Y-49986527D01*
X132080000Y-49993480D01*
X132080000Y-56921930D01*
X132060315Y-56988969D01*
X132007511Y-57034724D01*
X131938353Y-57044668D01*
X131874797Y-57015643D01*
X131855682Y-56994816D01*
X131819727Y-56945329D01*
X131763828Y-56868391D01*
X131624646Y-56729209D01*
X131465405Y-56613513D01*
X131290029Y-56524154D01*
X131102826Y-56463327D01*
X130908422Y-56432537D01*
X130908417Y-56432537D01*
X130711583Y-56432537D01*
X130711578Y-56432537D01*
X130517173Y-56463327D01*
X130329970Y-56524154D01*
X130154594Y-56613513D01*
X130063741Y-56679522D01*
X129995354Y-56729209D01*
X129995352Y-56729211D01*
X129995351Y-56729211D01*
X129856174Y-56868388D01*
X129856174Y-56868389D01*
X129856172Y-56868391D01*
X129806485Y-56936778D01*
X129740476Y-57027631D01*
X129650204Y-57204801D01*
X129602229Y-57255597D01*
X129534408Y-57272392D01*
X129468274Y-57249855D01*
X129429234Y-57204801D01*
X129339096Y-57027895D01*
X129313678Y-56992910D01*
X129313677Y-56992910D01*
X128623553Y-57683036D01*
X128623553Y-57683038D01*
X129313678Y-58373163D01*
X129313678Y-58373162D01*
X129339097Y-58338178D01*
X129429234Y-58161273D01*
X129477208Y-58110476D01*
X129545029Y-58093681D01*
X129611164Y-58116218D01*
X129650204Y-58161272D01*
X129651115Y-58163061D01*
X129651116Y-58163062D01*
X129740476Y-58338442D01*
X129785818Y-58400849D01*
X129809298Y-58466655D01*
X129809500Y-58473734D01*
X129809500Y-59576237D01*
X129789815Y-59643276D01*
X129785818Y-59649122D01*
X129697715Y-59770386D01*
X129604781Y-59952776D01*
X129541522Y-60147465D01*
X129509500Y-60349648D01*
X129509500Y-60554351D01*
X129541522Y-60756534D01*
X129604781Y-60951223D01*
X129697715Y-61133613D01*
X129818028Y-61299213D01*
X129962786Y-61443971D01*
X130117749Y-61556556D01*
X130128390Y-61564287D01*
X130244607Y-61623503D01*
X130310776Y-61657218D01*
X130310778Y-61657218D01*
X130310781Y-61657220D01*
X130415137Y-61691127D01*
X130505465Y-61720477D01*
X130606557Y-61736488D01*
X130707648Y-61752500D01*
X130707649Y-61752500D01*
X130912351Y-61752500D01*
X130912352Y-61752500D01*
X131114534Y-61720477D01*
X131309219Y-61657220D01*
X131491610Y-61564287D01*
X131584590Y-61496732D01*
X131657213Y-61443971D01*
X131657215Y-61443968D01*
X131657219Y-61443966D01*
X131801966Y-61299219D01*
X131855681Y-61225285D01*
X131911011Y-61182619D01*
X131980624Y-61176640D01*
X132042419Y-61209245D01*
X132076777Y-61270083D01*
X132080000Y-61298170D01*
X132080000Y-67226928D01*
X132060315Y-67293967D01*
X132007511Y-67339722D01*
X131946272Y-67350546D01*
X131889474Y-67346076D01*
X131210000Y-68025551D01*
X131210000Y-68019339D01*
X131182741Y-67917606D01*
X131130080Y-67826394D01*
X131055606Y-67751920D01*
X130964394Y-67699259D01*
X130862661Y-67672000D01*
X130856446Y-67672000D01*
X131535922Y-66992524D01*
X131535921Y-66992523D01*
X131491359Y-66960147D01*
X131491350Y-66960141D01*
X131309031Y-66867244D01*
X131114417Y-66804009D01*
X130912317Y-66772000D01*
X130707683Y-66772000D01*
X130505582Y-66804009D01*
X130310968Y-66867244D01*
X130128644Y-66960143D01*
X130084077Y-66992523D01*
X130084077Y-66992524D01*
X130763554Y-67672000D01*
X130757339Y-67672000D01*
X130655606Y-67699259D01*
X130564394Y-67751920D01*
X130489920Y-67826394D01*
X130437259Y-67917606D01*
X130410000Y-68019339D01*
X130410000Y-68025553D01*
X129730524Y-67346077D01*
X129730523Y-67346077D01*
X129698143Y-67390644D01*
X129605244Y-67572968D01*
X129542009Y-67767582D01*
X129510000Y-67969682D01*
X129510000Y-68174317D01*
X129542009Y-68376417D01*
X129605244Y-68571031D01*
X129698141Y-68753350D01*
X129698147Y-68753359D01*
X129730523Y-68797921D01*
X129730524Y-68797922D01*
X130410000Y-68118446D01*
X130410000Y-68124661D01*
X130437259Y-68226394D01*
X130489920Y-68317606D01*
X130564394Y-68392080D01*
X130655606Y-68444741D01*
X130757339Y-68472000D01*
X130763553Y-68472000D01*
X130084076Y-69151474D01*
X130128650Y-69183859D01*
X130310968Y-69276755D01*
X130505582Y-69339990D01*
X130707683Y-69372000D01*
X130912317Y-69372000D01*
X131114417Y-69339990D01*
X131309031Y-69276755D01*
X131491349Y-69183859D01*
X131535921Y-69151474D01*
X130856447Y-68472000D01*
X130862661Y-68472000D01*
X130964394Y-68444741D01*
X131055606Y-68392080D01*
X131130080Y-68317606D01*
X131182741Y-68226394D01*
X131210000Y-68124661D01*
X131210000Y-68118448D01*
X131889473Y-68797921D01*
X131946271Y-68793452D01*
X132014648Y-68807816D01*
X132064405Y-68856868D01*
X132080000Y-68917070D01*
X132080000Y-70485000D01*
X141141519Y-70485000D01*
X141148471Y-70485195D01*
X141189136Y-70487478D01*
X141473949Y-70503473D01*
X141487748Y-70505027D01*
X141805695Y-70559049D01*
X141819252Y-70562143D01*
X142129148Y-70651423D01*
X142142272Y-70656016D01*
X142440215Y-70779427D01*
X142452737Y-70785456D01*
X142735006Y-70941461D01*
X142746779Y-70948859D01*
X143009789Y-71135475D01*
X143020649Y-71144135D01*
X143231473Y-71332539D01*
X143261127Y-71359039D01*
X143270958Y-71368870D01*
X143480759Y-71603638D01*
X143485859Y-71609344D01*
X143494528Y-71620216D01*
X143681139Y-71883219D01*
X143688538Y-71894993D01*
X143844539Y-72177255D01*
X143850572Y-72189784D01*
X143973983Y-72487727D01*
X143978576Y-72500851D01*
X144067856Y-72810747D01*
X144070950Y-72824304D01*
X144124970Y-73142240D01*
X144126527Y-73156058D01*
X144144805Y-73481527D01*
X144145000Y-73488480D01*
X144145000Y-98596519D01*
X144144805Y-98603472D01*
X144126527Y-98928941D01*
X144124970Y-98942759D01*
X144070950Y-99260695D01*
X144067856Y-99274252D01*
X143978576Y-99584148D01*
X143973983Y-99597272D01*
X143850572Y-99895215D01*
X143844539Y-99907744D01*
X143688538Y-100190006D01*
X143681139Y-100201780D01*
X143494528Y-100464783D01*
X143485859Y-100475655D01*
X143270960Y-100716127D01*
X143261127Y-100725960D01*
X143020655Y-100940859D01*
X143009783Y-100949528D01*
X142746780Y-101136139D01*
X142735007Y-101143538D01*
X142612894Y-101211028D01*
X142552912Y-101226500D01*
X116527088Y-101226500D01*
X116467107Y-101211028D01*
X116344993Y-101143538D01*
X116333219Y-101136139D01*
X116070216Y-100949528D01*
X116059344Y-100940859D01*
X115818872Y-100725960D01*
X115809039Y-100716127D01*
X115594140Y-100475655D01*
X115585475Y-100464789D01*
X115398859Y-100201779D01*
X115391461Y-100190006D01*
X115235460Y-99907744D01*
X115229427Y-99895215D01*
X115106016Y-99597272D01*
X115101423Y-99584148D01*
X115012143Y-99274252D01*
X115009049Y-99260695D01*
X114955027Y-98942748D01*
X114953473Y-98928949D01*
X114935195Y-98603471D01*
X114935000Y-98596519D01*
X114935000Y-91083682D01*
X119430000Y-91083682D01*
X119430000Y-91288317D01*
X119462009Y-91490417D01*
X119525244Y-91685031D01*
X119618141Y-91867350D01*
X119618147Y-91867359D01*
X119650523Y-91911921D01*
X119650524Y-91911922D01*
X120330000Y-91232446D01*
X120330000Y-91238661D01*
X120357259Y-91340394D01*
X120409920Y-91431606D01*
X120484394Y-91506080D01*
X120575606Y-91558741D01*
X120677339Y-91586000D01*
X120683553Y-91586000D01*
X120004076Y-92265474D01*
X120048650Y-92297859D01*
X120230968Y-92390755D01*
X120425582Y-92453990D01*
X120627683Y-92486000D01*
X120832317Y-92486000D01*
X121034417Y-92453990D01*
X121229031Y-92390755D01*
X121411349Y-92297859D01*
X121455921Y-92265474D01*
X120776447Y-91586000D01*
X120782661Y-91586000D01*
X120884394Y-91558741D01*
X120975606Y-91506080D01*
X121050080Y-91431606D01*
X121102741Y-91340394D01*
X121130000Y-91238661D01*
X121130000Y-91232447D01*
X121809474Y-91911921D01*
X121841859Y-91867349D01*
X121934755Y-91685031D01*
X121997990Y-91490417D01*
X122030000Y-91288317D01*
X122030000Y-91083682D01*
X121997990Y-90881582D01*
X121934754Y-90686965D01*
X121910381Y-90639130D01*
X121910380Y-90639129D01*
X121883301Y-90585983D01*
X124429500Y-90585983D01*
X124429500Y-91786001D01*
X124429501Y-91786018D01*
X124440000Y-91888796D01*
X124440001Y-91888799D01*
X124487856Y-92033213D01*
X124495186Y-92055334D01*
X124587288Y-92204656D01*
X124711344Y-92328712D01*
X124860666Y-92420814D01*
X125027203Y-92475999D01*
X125129991Y-92486500D01*
X126330008Y-92486499D01*
X126432797Y-92475999D01*
X126599334Y-92420814D01*
X126748656Y-92328712D01*
X126854550Y-92222818D01*
X126915873Y-92189334D01*
X126942231Y-92186500D01*
X128681915Y-92186500D01*
X128748954Y-92206185D01*
X128794709Y-92258989D01*
X128805915Y-92310500D01*
X128805915Y-93012432D01*
X128799621Y-93051435D01*
X128791241Y-93076722D01*
X128791240Y-93076726D01*
X128780915Y-93177793D01*
X128780915Y-93751147D01*
X128780916Y-93751165D01*
X128791240Y-93852230D01*
X128827524Y-93961727D01*
X128845507Y-94015994D01*
X128936075Y-94162828D01*
X129058065Y-94284818D01*
X129204899Y-94375386D01*
X129368662Y-94429652D01*
X129469738Y-94439978D01*
X129569978Y-94439977D01*
X129594171Y-94442360D01*
X129707873Y-94464978D01*
X129880738Y-94464978D01*
X129947777Y-94484663D01*
X129993532Y-94537467D01*
X130003476Y-94606625D01*
X129974451Y-94670181D01*
X129968419Y-94676659D01*
X129026896Y-95618181D01*
X128965573Y-95651666D01*
X128939225Y-95654500D01*
X128930002Y-95654500D01*
X128929981Y-95654501D01*
X128827202Y-95665001D01*
X128827200Y-95665001D01*
X128660668Y-95720185D01*
X128660663Y-95720187D01*
X128511342Y-95812289D01*
X128387289Y-95936342D01*
X128295187Y-96085663D01*
X128295185Y-96085668D01*
X128290180Y-96100772D01*
X128240001Y-96252203D01*
X128240001Y-96252204D01*
X128240000Y-96252204D01*
X128229500Y-96354983D01*
X128229500Y-97955001D01*
X128229501Y-97955018D01*
X128240000Y-98057796D01*
X128240001Y-98057799D01*
X128274031Y-98160493D01*
X128295186Y-98224334D01*
X128387288Y-98373656D01*
X128511344Y-98497712D01*
X128660666Y-98589814D01*
X128827203Y-98644999D01*
X128929991Y-98655500D01*
X130230008Y-98655499D01*
X130332797Y-98644999D01*
X130499334Y-98589814D01*
X130648656Y-98497712D01*
X130772712Y-98373656D01*
X130864814Y-98224334D01*
X130864814Y-98224331D01*
X130868448Y-98218441D01*
X130920395Y-98171716D01*
X130989358Y-98160493D01*
X131053440Y-98188336D01*
X131061668Y-98195856D01*
X131200535Y-98334723D01*
X131200540Y-98334727D01*
X131372442Y-98459620D01*
X131561782Y-98556095D01*
X131763871Y-98621757D01*
X131830000Y-98632231D01*
X131830000Y-97588012D01*
X131887007Y-97620925D01*
X132014174Y-97655000D01*
X132145826Y-97655000D01*
X132272993Y-97620925D01*
X132330000Y-97588012D01*
X132330000Y-98632230D01*
X132396126Y-98621757D01*
X132396129Y-98621757D01*
X132598217Y-98556095D01*
X132787557Y-98459620D01*
X132959459Y-98334727D01*
X132959464Y-98334723D01*
X133109723Y-98184464D01*
X133109727Y-98184459D01*
X133234620Y-98012557D01*
X133331095Y-97823217D01*
X133396757Y-97621130D01*
X133396757Y-97621127D01*
X133430000Y-97411246D01*
X133430000Y-97405000D01*
X132513012Y-97405000D01*
X132545925Y-97347993D01*
X132580000Y-97220826D01*
X132580000Y-97089174D01*
X132545925Y-96962007D01*
X132513012Y-96905000D01*
X133430000Y-96905000D01*
X133430000Y-96898753D01*
X133396757Y-96688872D01*
X133396757Y-96688869D01*
X133331095Y-96486782D01*
X133234620Y-96297442D01*
X133109727Y-96125540D01*
X133109723Y-96125535D01*
X132959464Y-95975276D01*
X132959459Y-95975272D01*
X132787557Y-95850379D01*
X132598215Y-95753903D01*
X132396124Y-95688241D01*
X132330000Y-95677768D01*
X132330000Y-96721988D01*
X132272993Y-96689075D01*
X132145826Y-96655000D01*
X132014174Y-96655000D01*
X131887007Y-96689075D01*
X131830000Y-96721988D01*
X131830000Y-95696282D01*
X131849685Y-95629243D01*
X131866315Y-95608604D01*
X132222139Y-95252782D01*
X132331632Y-95088914D01*
X132407051Y-94906835D01*
X132445500Y-94713541D01*
X132445500Y-94588978D01*
X132465185Y-94521939D01*
X132517989Y-94476184D01*
X132569500Y-94464978D01*
X134273696Y-94464978D01*
X134340735Y-94484663D01*
X134361377Y-94501297D01*
X137083181Y-97223102D01*
X137116666Y-97284425D01*
X137119500Y-97310783D01*
X137119500Y-97955001D01*
X137119501Y-97955019D01*
X137130000Y-98057796D01*
X137130001Y-98057799D01*
X137164031Y-98160493D01*
X137185186Y-98224334D01*
X137277288Y-98373656D01*
X137401344Y-98497712D01*
X137550666Y-98589814D01*
X137717203Y-98644999D01*
X137819991Y-98655500D01*
X139120008Y-98655499D01*
X139222797Y-98644999D01*
X139389334Y-98589814D01*
X139538656Y-98497712D01*
X139662712Y-98373656D01*
X139754814Y-98224334D01*
X139754814Y-98224331D01*
X139758448Y-98218441D01*
X139810395Y-98171716D01*
X139879358Y-98160493D01*
X139943440Y-98188336D01*
X139951668Y-98195856D01*
X140090535Y-98334723D01*
X140090540Y-98334727D01*
X140262442Y-98459620D01*
X140451782Y-98556095D01*
X140653871Y-98621757D01*
X140720000Y-98632231D01*
X140720000Y-97588012D01*
X140777007Y-97620925D01*
X140904174Y-97655000D01*
X141035826Y-97655000D01*
X141162993Y-97620925D01*
X141220000Y-97588012D01*
X141220000Y-98632230D01*
X141286126Y-98621757D01*
X141286129Y-98621757D01*
X141488217Y-98556095D01*
X141677557Y-98459620D01*
X141849459Y-98334727D01*
X141849464Y-98334723D01*
X141999723Y-98184464D01*
X141999727Y-98184459D01*
X142124620Y-98012557D01*
X142221095Y-97823217D01*
X142286757Y-97621130D01*
X142286757Y-97621127D01*
X142320000Y-97411246D01*
X142320000Y-97405000D01*
X141403012Y-97405000D01*
X141435925Y-97347993D01*
X141470000Y-97220826D01*
X141470000Y-97089174D01*
X141435925Y-96962007D01*
X141403012Y-96905000D01*
X142320000Y-96905000D01*
X142320000Y-96898753D01*
X142286757Y-96688872D01*
X142286757Y-96688869D01*
X142221095Y-96486782D01*
X142124620Y-96297442D01*
X141999727Y-96125540D01*
X141999723Y-96125535D01*
X141849464Y-95975276D01*
X141849459Y-95975272D01*
X141677557Y-95850379D01*
X141488215Y-95753903D01*
X141286124Y-95688241D01*
X141220000Y-95677768D01*
X141220000Y-96721988D01*
X141162993Y-96689075D01*
X141035826Y-96655000D01*
X140904174Y-96655000D01*
X140777007Y-96689075D01*
X140720000Y-96721988D01*
X140720000Y-95677768D01*
X140719999Y-95677768D01*
X140653875Y-95688241D01*
X140451784Y-95753903D01*
X140262442Y-95850379D01*
X140090541Y-95975271D01*
X139951668Y-96114144D01*
X139890345Y-96147628D01*
X139820653Y-96142644D01*
X139764720Y-96100772D01*
X139758448Y-96091558D01*
X139662712Y-95936344D01*
X139538657Y-95812289D01*
X139538656Y-95812288D01*
X139389334Y-95720186D01*
X139222797Y-95665001D01*
X139222795Y-95665000D01*
X139120016Y-95654500D01*
X139120009Y-95654500D01*
X138395783Y-95654500D01*
X138328744Y-95634815D01*
X138308102Y-95618181D01*
X135523687Y-92833767D01*
X135523684Y-92833763D01*
X135523684Y-92833764D01*
X135516617Y-92826697D01*
X135516617Y-92826696D01*
X135377260Y-92687339D01*
X135377259Y-92687338D01*
X135377258Y-92687337D01*
X135213398Y-92577849D01*
X135213389Y-92577844D01*
X135092291Y-92527684D01*
X135084643Y-92524516D01*
X135031314Y-92502427D01*
X134898452Y-92475999D01*
X134855660Y-92467487D01*
X134838020Y-92463978D01*
X134838019Y-92463978D01*
X134479190Y-92463978D01*
X134412151Y-92444293D01*
X134366396Y-92391489D01*
X134356452Y-92322331D01*
X134385477Y-92258775D01*
X134400135Y-92244446D01*
X134403146Y-92241953D01*
X134491219Y-92177966D01*
X134635966Y-92033219D01*
X134635968Y-92033215D01*
X134635971Y-92033213D01*
X134740894Y-91888797D01*
X134756287Y-91867610D01*
X134783795Y-91813621D01*
X134831769Y-91762826D01*
X134899589Y-91746030D01*
X134965725Y-91768567D01*
X135004765Y-91813621D01*
X135032141Y-91867350D01*
X135032147Y-91867359D01*
X135064523Y-91911921D01*
X135064524Y-91911922D01*
X135744000Y-91232446D01*
X135744000Y-91238661D01*
X135771259Y-91340394D01*
X135823920Y-91431606D01*
X135898394Y-91506080D01*
X135989606Y-91558741D01*
X136091339Y-91586000D01*
X136097553Y-91586000D01*
X135418076Y-92265474D01*
X135462650Y-92297859D01*
X135644968Y-92390755D01*
X135839582Y-92453990D01*
X136041683Y-92486000D01*
X136246317Y-92486000D01*
X136448417Y-92453990D01*
X136643031Y-92390755D01*
X136825349Y-92297859D01*
X136869921Y-92265474D01*
X136190447Y-91586000D01*
X136196661Y-91586000D01*
X136298394Y-91558741D01*
X136389606Y-91506080D01*
X136464080Y-91431606D01*
X136516741Y-91340394D01*
X136544000Y-91238661D01*
X136544000Y-91232448D01*
X137223474Y-91911922D01*
X137223474Y-91911921D01*
X137255859Y-91867349D01*
X137348755Y-91685031D01*
X137411990Y-91490417D01*
X137444000Y-91288317D01*
X137444000Y-91083682D01*
X137411990Y-90881582D01*
X137348755Y-90686968D01*
X137255859Y-90504650D01*
X137223474Y-90460077D01*
X137223474Y-90460076D01*
X136544000Y-91139551D01*
X136544000Y-91133339D01*
X136516741Y-91031606D01*
X136464080Y-90940394D01*
X136389606Y-90865920D01*
X136298394Y-90813259D01*
X136196661Y-90786000D01*
X136190446Y-90786000D01*
X136869922Y-90106524D01*
X136869921Y-90106523D01*
X136825359Y-90074147D01*
X136825350Y-90074141D01*
X136643031Y-89981244D01*
X136448417Y-89918009D01*
X136246317Y-89886000D01*
X136041683Y-89886000D01*
X135839582Y-89918009D01*
X135644968Y-89981244D01*
X135462644Y-90074143D01*
X135418077Y-90106523D01*
X135418077Y-90106524D01*
X136097554Y-90786000D01*
X136091339Y-90786000D01*
X135989606Y-90813259D01*
X135898394Y-90865920D01*
X135823920Y-90940394D01*
X135771259Y-91031606D01*
X135744000Y-91133339D01*
X135744000Y-91139553D01*
X135064524Y-90460077D01*
X135064523Y-90460077D01*
X135032143Y-90504644D01*
X135004765Y-90558378D01*
X134956790Y-90609174D01*
X134888969Y-90625969D01*
X134822834Y-90603431D01*
X134783795Y-90558378D01*
X134756284Y-90504385D01*
X134635971Y-90338786D01*
X134491213Y-90194028D01*
X134325613Y-90073715D01*
X134325612Y-90073714D01*
X134325610Y-90073713D01*
X134265896Y-90043287D01*
X134143223Y-89980781D01*
X133948534Y-89917522D01*
X133773995Y-89889878D01*
X133746352Y-89885500D01*
X133541648Y-89885500D01*
X133517329Y-89889351D01*
X133339465Y-89917522D01*
X133144776Y-89980781D01*
X132962386Y-90073715D01*
X132841123Y-90161818D01*
X132775317Y-90185298D01*
X132768238Y-90185500D01*
X130689762Y-90185500D01*
X130622723Y-90165815D01*
X130616877Y-90161818D01*
X130495613Y-90073715D01*
X130495612Y-90073714D01*
X130495610Y-90073713D01*
X130435896Y-90043287D01*
X130313223Y-89980781D01*
X130118534Y-89917522D01*
X129943995Y-89889878D01*
X129916352Y-89885500D01*
X129711648Y-89885500D01*
X129687329Y-89889351D01*
X129509465Y-89917522D01*
X129314776Y-89980781D01*
X129132386Y-90073715D01*
X129011123Y-90161818D01*
X128945317Y-90185298D01*
X128938238Y-90185500D01*
X126942231Y-90185500D01*
X126875192Y-90165815D01*
X126854550Y-90149182D01*
X126811891Y-90106523D01*
X126748656Y-90043288D01*
X126648066Y-89981244D01*
X126599336Y-89951187D01*
X126599331Y-89951185D01*
X126597862Y-89950698D01*
X126432797Y-89896001D01*
X126432795Y-89896000D01*
X126330010Y-89885500D01*
X125129998Y-89885500D01*
X125129981Y-89885501D01*
X125027203Y-89896000D01*
X125027200Y-89896001D01*
X124860668Y-89951185D01*
X124860663Y-89951187D01*
X124711342Y-90043289D01*
X124587289Y-90167342D01*
X124495187Y-90316663D01*
X124495186Y-90316666D01*
X124440001Y-90483203D01*
X124440001Y-90483204D01*
X124440000Y-90483204D01*
X124429500Y-90585983D01*
X121883301Y-90585983D01*
X121841859Y-90504650D01*
X121809474Y-90460077D01*
X121809474Y-90460076D01*
X121130000Y-91139551D01*
X121130000Y-91133339D01*
X121102741Y-91031606D01*
X121050080Y-90940394D01*
X120975606Y-90865920D01*
X120884394Y-90813259D01*
X120782661Y-90786000D01*
X120776446Y-90786000D01*
X121455922Y-90106524D01*
X121455921Y-90106523D01*
X121411359Y-90074147D01*
X121411350Y-90074141D01*
X121229031Y-89981244D01*
X121034417Y-89918009D01*
X120832317Y-89886000D01*
X120627683Y-89886000D01*
X120425582Y-89918009D01*
X120230968Y-89981244D01*
X120048644Y-90074143D01*
X120004077Y-90106523D01*
X120004077Y-90106524D01*
X120683554Y-90786000D01*
X120677339Y-90786000D01*
X120575606Y-90813259D01*
X120484394Y-90865920D01*
X120409920Y-90940394D01*
X120357259Y-91031606D01*
X120330000Y-91133339D01*
X120330000Y-91139553D01*
X119650524Y-90460077D01*
X119650523Y-90460077D01*
X119618143Y-90504644D01*
X119525244Y-90686968D01*
X119462009Y-90881582D01*
X119430000Y-91083682D01*
X114935000Y-91083682D01*
X114935000Y-73200912D01*
X114954685Y-73133873D01*
X115007489Y-73088118D01*
X115076647Y-73078174D01*
X115129985Y-73099240D01*
X115151903Y-73114543D01*
X115830000Y-72436446D01*
X115830000Y-72442661D01*
X115857259Y-72544394D01*
X115909920Y-72635606D01*
X115984394Y-72710080D01*
X116075606Y-72762741D01*
X116177339Y-72790000D01*
X116183553Y-72790000D01*
X115504076Y-73469474D01*
X115548650Y-73501859D01*
X115730968Y-73594755D01*
X115925582Y-73657990D01*
X116127683Y-73690000D01*
X116332317Y-73690000D01*
X116534417Y-73657990D01*
X116729031Y-73594755D01*
X116911349Y-73501859D01*
X116955921Y-73469474D01*
X116276447Y-72790000D01*
X116282661Y-72790000D01*
X116384394Y-72762741D01*
X116475606Y-72710080D01*
X116550080Y-72635606D01*
X116602741Y-72544394D01*
X116630000Y-72442661D01*
X116630000Y-72436447D01*
X117309474Y-73115921D01*
X117341859Y-73071349D01*
X117434755Y-72889031D01*
X117497990Y-72694417D01*
X117530000Y-72492317D01*
X117530000Y-72287682D01*
X117497990Y-72085582D01*
X117434754Y-71890965D01*
X117410381Y-71843130D01*
X117410380Y-71843129D01*
X117383301Y-71789983D01*
X119929500Y-71789983D01*
X119929500Y-72990001D01*
X119929501Y-72990018D01*
X119940000Y-73092796D01*
X119940001Y-73092799D01*
X119962857Y-73161772D01*
X119995186Y-73259334D01*
X120087288Y-73408656D01*
X120211344Y-73532712D01*
X120360666Y-73624814D01*
X120527203Y-73679999D01*
X120629991Y-73690500D01*
X121830008Y-73690499D01*
X121932797Y-73679999D01*
X122099334Y-73624814D01*
X122248656Y-73532712D01*
X122354550Y-73426818D01*
X122415873Y-73393334D01*
X122442231Y-73390500D01*
X123036230Y-73390500D01*
X123103269Y-73410185D01*
X123149024Y-73462989D01*
X123158968Y-73532147D01*
X123139332Y-73583391D01*
X123065371Y-73694079D01*
X123065364Y-73694092D01*
X122989950Y-73876160D01*
X122989947Y-73876170D01*
X122951500Y-74069456D01*
X122951500Y-78661627D01*
X122931815Y-78728666D01*
X122879011Y-78774421D01*
X122870834Y-78777809D01*
X122757169Y-78820203D01*
X122757164Y-78820206D01*
X122641955Y-78906452D01*
X122641952Y-78906455D01*
X122555706Y-79021664D01*
X122555702Y-79021671D01*
X122505408Y-79156517D01*
X122499001Y-79216116D01*
X122499000Y-79216135D01*
X122499000Y-81311870D01*
X122499001Y-81311876D01*
X122505408Y-81371483D01*
X122555702Y-81506328D01*
X122555706Y-81506335D01*
X122641952Y-81621544D01*
X122641955Y-81621547D01*
X122757164Y-81707793D01*
X122757171Y-81707797D01*
X122892017Y-81758091D01*
X122892016Y-81758091D01*
X122898944Y-81758835D01*
X122951627Y-81764500D01*
X124952372Y-81764499D01*
X125011983Y-81758091D01*
X125146831Y-81707796D01*
X125262046Y-81621546D01*
X125348296Y-81506331D01*
X125398591Y-81371483D01*
X125405000Y-81311873D01*
X125404999Y-81048805D01*
X125424683Y-80981769D01*
X125441318Y-80961127D01*
X125968212Y-80434233D01*
X125979482Y-80476292D01*
X126051890Y-80601708D01*
X126154292Y-80704110D01*
X126279708Y-80776518D01*
X126321765Y-80787787D01*
X125635305Y-81474245D01*
X125635160Y-81484357D01*
X125730723Y-81553788D01*
X125934431Y-81657582D01*
X126151875Y-81728234D01*
X126377687Y-81764000D01*
X126606313Y-81764000D01*
X126832124Y-81728234D01*
X126832125Y-81728234D01*
X127049568Y-81657582D01*
X127253276Y-81553788D01*
X127354610Y-81480163D01*
X127354611Y-81480163D01*
X126662234Y-80787787D01*
X126704292Y-80776518D01*
X126829708Y-80704110D01*
X126932110Y-80601708D01*
X127004518Y-80476292D01*
X127015787Y-80434234D01*
X127700639Y-81119087D01*
X127746906Y-81115446D01*
X127815284Y-81129810D01*
X127856954Y-81166179D01*
X127923714Y-81258066D01*
X128085434Y-81419786D01*
X128270462Y-81554217D01*
X128402599Y-81621544D01*
X128474244Y-81658049D01*
X128575682Y-81691007D01*
X128691755Y-81728722D01*
X128708900Y-81731437D01*
X128772032Y-81761366D01*
X128808964Y-81820677D01*
X128813500Y-81853910D01*
X128813500Y-82441500D01*
X128793815Y-82508539D01*
X128741011Y-82554294D01*
X128689500Y-82565500D01*
X127387762Y-82565500D01*
X127320723Y-82545815D01*
X127314877Y-82541818D01*
X127193613Y-82453715D01*
X127193612Y-82453714D01*
X127193610Y-82453713D01*
X127133896Y-82423287D01*
X127011223Y-82360781D01*
X126816534Y-82297522D01*
X126641995Y-82269878D01*
X126614352Y-82265500D01*
X126409648Y-82265500D01*
X126385329Y-82269351D01*
X126207465Y-82297522D01*
X126012776Y-82360781D01*
X125830386Y-82453715D01*
X125709123Y-82541818D01*
X125643317Y-82565298D01*
X125636238Y-82565500D01*
X125631457Y-82565500D01*
X125438170Y-82603947D01*
X125438160Y-82603950D01*
X125256092Y-82679364D01*
X125256079Y-82679371D01*
X125092218Y-82788860D01*
X125092214Y-82788863D01*
X124952863Y-82928214D01*
X124952860Y-82928218D01*
X124858006Y-83070176D01*
X124842585Y-83088966D01*
X124412000Y-83519551D01*
X124412000Y-83513339D01*
X124384741Y-83411606D01*
X124332080Y-83320394D01*
X124257606Y-83245920D01*
X124166394Y-83193259D01*
X124064661Y-83166000D01*
X124058446Y-83166000D01*
X124737922Y-82486524D01*
X124737921Y-82486523D01*
X124693359Y-82454147D01*
X124693350Y-82454141D01*
X124511031Y-82361244D01*
X124316417Y-82298009D01*
X124114317Y-82266000D01*
X123909683Y-82266000D01*
X123707582Y-82298009D01*
X123512968Y-82361244D01*
X123330644Y-82454143D01*
X123286077Y-82486523D01*
X123286077Y-82486524D01*
X123965554Y-83166000D01*
X123959339Y-83166000D01*
X123857606Y-83193259D01*
X123766394Y-83245920D01*
X123691920Y-83320394D01*
X123639259Y-83411606D01*
X123612000Y-83513339D01*
X123612000Y-83519553D01*
X122932524Y-82840077D01*
X122932523Y-82840077D01*
X122900143Y-82884644D01*
X122807244Y-83066968D01*
X122744009Y-83261582D01*
X122712000Y-83463682D01*
X122712000Y-83668317D01*
X122744009Y-83870417D01*
X122807244Y-84065031D01*
X122900141Y-84247350D01*
X122900147Y-84247359D01*
X122932523Y-84291921D01*
X122932524Y-84291922D01*
X123612000Y-83612446D01*
X123612000Y-83618661D01*
X123639259Y-83720394D01*
X123691920Y-83811606D01*
X123766394Y-83886080D01*
X123857606Y-83938741D01*
X123959339Y-83966000D01*
X123965553Y-83966000D01*
X123286076Y-84645474D01*
X123330650Y-84677859D01*
X123512968Y-84770755D01*
X123707582Y-84833990D01*
X123909683Y-84866000D01*
X124114317Y-84866000D01*
X124316417Y-84833990D01*
X124511031Y-84770755D01*
X124693349Y-84677859D01*
X124737921Y-84645474D01*
X124058447Y-83966000D01*
X124064661Y-83966000D01*
X124166394Y-83938741D01*
X124257606Y-83886080D01*
X124332080Y-83811606D01*
X124384741Y-83720394D01*
X124412000Y-83618661D01*
X124412000Y-83612447D01*
X124842585Y-84043032D01*
X124858006Y-84061822D01*
X124952860Y-84203781D01*
X124952863Y-84203785D01*
X125092214Y-84343136D01*
X125092218Y-84343139D01*
X125256079Y-84452628D01*
X125256092Y-84452635D01*
X125438160Y-84528049D01*
X125438165Y-84528051D01*
X125438169Y-84528051D01*
X125438170Y-84528052D01*
X125631456Y-84566500D01*
X125631459Y-84566500D01*
X125636238Y-84566500D01*
X125703277Y-84586185D01*
X125709119Y-84590179D01*
X125830390Y-84678287D01*
X125946607Y-84737503D01*
X126012776Y-84771218D01*
X126012778Y-84771218D01*
X126012781Y-84771220D01*
X126103856Y-84800812D01*
X126207465Y-84834477D01*
X126308557Y-84850488D01*
X126409648Y-84866500D01*
X126409649Y-84866500D01*
X126614351Y-84866500D01*
X126614352Y-84866500D01*
X126816534Y-84834477D01*
X127011219Y-84771220D01*
X127193610Y-84678287D01*
X127314877Y-84590181D01*
X127380683Y-84566702D01*
X127387762Y-84566500D01*
X128938238Y-84566500D01*
X129005277Y-84586185D01*
X129011119Y-84590179D01*
X129132390Y-84678287D01*
X129248607Y-84737503D01*
X129314776Y-84771218D01*
X129314778Y-84771218D01*
X129314781Y-84771220D01*
X129405856Y-84800812D01*
X129509465Y-84834477D01*
X129610557Y-84850488D01*
X129711648Y-84866500D01*
X129711649Y-84866500D01*
X129916351Y-84866500D01*
X129916352Y-84866500D01*
X130118534Y-84834477D01*
X130313219Y-84771220D01*
X130495610Y-84678287D01*
X130616877Y-84590181D01*
X130682683Y-84566702D01*
X130689762Y-84566500D01*
X132772769Y-84566500D01*
X132839808Y-84586185D01*
X132860450Y-84602818D01*
X132966344Y-84708712D01*
X133115666Y-84800814D01*
X133282203Y-84855999D01*
X133384991Y-84866500D01*
X134585008Y-84866499D01*
X134687797Y-84855999D01*
X134854334Y-84800814D01*
X135003656Y-84708712D01*
X135127712Y-84584656D01*
X135219814Y-84435334D01*
X135274999Y-84268797D01*
X135285500Y-84166009D01*
X135285499Y-83463682D01*
X137685000Y-83463682D01*
X137685000Y-83668317D01*
X137717009Y-83870417D01*
X137780244Y-84065031D01*
X137873141Y-84247350D01*
X137873147Y-84247359D01*
X137905523Y-84291921D01*
X137905524Y-84291922D01*
X138585000Y-83612446D01*
X138585000Y-83618661D01*
X138612259Y-83720394D01*
X138664920Y-83811606D01*
X138739394Y-83886080D01*
X138830606Y-83938741D01*
X138932339Y-83966000D01*
X138938553Y-83966000D01*
X138259076Y-84645474D01*
X138303650Y-84677859D01*
X138485968Y-84770755D01*
X138680582Y-84833990D01*
X138882683Y-84866000D01*
X139087317Y-84866000D01*
X139289417Y-84833990D01*
X139484031Y-84770755D01*
X139666349Y-84677859D01*
X139710921Y-84645474D01*
X139031447Y-83966000D01*
X139037661Y-83966000D01*
X139139394Y-83938741D01*
X139230606Y-83886080D01*
X139305080Y-83811606D01*
X139357741Y-83720394D01*
X139385000Y-83618661D01*
X139385000Y-83612447D01*
X140064474Y-84291921D01*
X140096859Y-84247349D01*
X140189755Y-84065031D01*
X140252990Y-83870417D01*
X140285000Y-83668317D01*
X140285000Y-83463682D01*
X140252990Y-83261582D01*
X140189755Y-83066968D01*
X140096859Y-82884650D01*
X140064474Y-82840077D01*
X140064474Y-82840076D01*
X139385000Y-83519551D01*
X139385000Y-83513339D01*
X139357741Y-83411606D01*
X139305080Y-83320394D01*
X139230606Y-83245920D01*
X139139394Y-83193259D01*
X139037661Y-83166000D01*
X139031446Y-83166000D01*
X139710922Y-82486524D01*
X139710921Y-82486523D01*
X139666359Y-82454147D01*
X139666350Y-82454141D01*
X139484031Y-82361244D01*
X139289417Y-82298009D01*
X139087317Y-82266000D01*
X138882683Y-82266000D01*
X138680582Y-82298009D01*
X138485968Y-82361244D01*
X138303644Y-82454143D01*
X138259077Y-82486523D01*
X138259077Y-82486524D01*
X138938554Y-83166000D01*
X138932339Y-83166000D01*
X138830606Y-83193259D01*
X138739394Y-83245920D01*
X138664920Y-83320394D01*
X138612259Y-83411606D01*
X138585000Y-83513339D01*
X138585000Y-83519553D01*
X137905524Y-82840077D01*
X137905523Y-82840077D01*
X137873143Y-82884644D01*
X137780244Y-83066968D01*
X137717009Y-83261582D01*
X137685000Y-83463682D01*
X135285499Y-83463682D01*
X135285499Y-82965992D01*
X135274999Y-82863203D01*
X135219814Y-82696666D01*
X135209146Y-82679371D01*
X135159500Y-82598881D01*
X135159499Y-82598880D01*
X135127712Y-82547344D01*
X135003656Y-82423288D01*
X134854334Y-82331186D01*
X134687797Y-82276001D01*
X134687795Y-82276000D01*
X134585010Y-82265500D01*
X133384998Y-82265500D01*
X133384981Y-82265501D01*
X133282203Y-82276000D01*
X133282200Y-82276001D01*
X133115668Y-82331185D01*
X133115663Y-82331187D01*
X132966345Y-82423287D01*
X132860450Y-82529182D01*
X132799127Y-82562666D01*
X132772769Y-82565500D01*
X130938500Y-82565500D01*
X130871461Y-82545815D01*
X130825706Y-82493011D01*
X130814500Y-82441500D01*
X130814500Y-80947456D01*
X130776052Y-80754170D01*
X130776051Y-80754169D01*
X130776051Y-80754165D01*
X130712902Y-80601708D01*
X130700635Y-80572092D01*
X130700628Y-80572079D01*
X130591139Y-80408218D01*
X130591136Y-80408214D01*
X130521319Y-80338397D01*
X130487834Y-80277074D01*
X130485000Y-80250716D01*
X130485000Y-80102146D01*
X130457147Y-79926292D01*
X130449222Y-79876255D01*
X130449221Y-79876251D01*
X130449221Y-79876250D01*
X130378549Y-79658744D01*
X130274716Y-79454961D01*
X130140286Y-79269934D01*
X129978566Y-79108214D01*
X129793538Y-78973783D01*
X129589755Y-78869950D01*
X129372248Y-78799278D01*
X129186818Y-78769909D01*
X129146354Y-78763500D01*
X128917646Y-78763500D01*
X128877182Y-78769909D01*
X128691753Y-78799278D01*
X128691750Y-78799278D01*
X128474244Y-78869950D01*
X128270461Y-78973783D01*
X128204550Y-79021671D01*
X128085434Y-79108214D01*
X128085432Y-79108216D01*
X128085431Y-79108216D01*
X127923715Y-79269932D01*
X127856954Y-79361821D01*
X127801623Y-79404486D01*
X127746906Y-79412553D01*
X127700639Y-79408911D01*
X127015787Y-80093764D01*
X127004518Y-80051708D01*
X126932110Y-79926292D01*
X126829708Y-79823890D01*
X126704292Y-79751482D01*
X126662234Y-79740212D01*
X127354611Y-79047835D01*
X127354610Y-79047833D01*
X127253279Y-78974213D01*
X127049568Y-78870417D01*
X126832124Y-78799765D01*
X126606313Y-78764000D01*
X126377687Y-78764000D01*
X126151875Y-78799765D01*
X126151874Y-78799765D01*
X125934431Y-78870417D01*
X125730719Y-78974213D01*
X125547939Y-79107010D01*
X125482132Y-79130490D01*
X125414079Y-79114664D01*
X125365384Y-79064558D01*
X125358875Y-79050033D01*
X125348296Y-79021669D01*
X125348295Y-79021667D01*
X125348293Y-79021664D01*
X125262047Y-78906455D01*
X125262044Y-78906452D01*
X125146835Y-78820206D01*
X125146830Y-78820203D01*
X125033166Y-78777809D01*
X124977233Y-78735937D01*
X124952816Y-78670473D01*
X124952500Y-78661627D01*
X124952500Y-76155218D01*
X124972185Y-76088179D01*
X125024989Y-76042424D01*
X125094147Y-76032480D01*
X125132795Y-76044733D01*
X125230968Y-76094755D01*
X125425582Y-76157990D01*
X125627683Y-76190000D01*
X125832317Y-76190000D01*
X126034417Y-76157990D01*
X126229031Y-76094755D01*
X126411349Y-76001859D01*
X126455921Y-75969474D01*
X125776447Y-75290000D01*
X125782661Y-75290000D01*
X125884394Y-75262741D01*
X125975606Y-75210080D01*
X126050080Y-75135606D01*
X126102741Y-75044394D01*
X126130000Y-74942661D01*
X126130000Y-74936447D01*
X126809474Y-75615921D01*
X126841859Y-75571349D01*
X126934755Y-75389031D01*
X126997990Y-75194417D01*
X127030000Y-74992317D01*
X127030000Y-74787682D01*
X126997990Y-74585582D01*
X126934755Y-74390968D01*
X126841859Y-74208650D01*
X126809474Y-74164077D01*
X126809474Y-74164076D01*
X126130000Y-74843551D01*
X126130000Y-74837339D01*
X126102741Y-74735606D01*
X126050080Y-74644394D01*
X125975606Y-74569920D01*
X125884394Y-74517259D01*
X125782661Y-74490000D01*
X125776446Y-74490000D01*
X126455922Y-73810524D01*
X126455921Y-73810523D01*
X126411359Y-73778147D01*
X126411350Y-73778141D01*
X126357621Y-73750765D01*
X126306825Y-73702791D01*
X126290030Y-73634970D01*
X126312567Y-73568835D01*
X126345928Y-73536581D01*
X126351590Y-73532868D01*
X126411610Y-73502287D01*
X126535282Y-73412434D01*
X126537774Y-73410801D01*
X126568463Y-73401484D01*
X126598683Y-73390702D01*
X126604531Y-73390535D01*
X126604631Y-73390505D01*
X126604718Y-73390529D01*
X126605762Y-73390500D01*
X128138657Y-73390500D01*
X128205696Y-73410185D01*
X128226338Y-73426818D01*
X128332232Y-73532712D01*
X128481554Y-73624814D01*
X128648091Y-73679999D01*
X128750879Y-73690500D01*
X129950896Y-73690499D01*
X130053685Y-73679999D01*
X130220222Y-73624814D01*
X130369544Y-73532712D01*
X130493600Y-73408656D01*
X130585702Y-73259334D01*
X130608990Y-73189054D01*
X130612998Y-73181050D01*
X130630948Y-73161772D01*
X130645943Y-73140116D01*
X130654383Y-73136606D01*
X130660613Y-73129917D01*
X130686137Y-73123404D01*
X130710459Y-73113292D01*
X130726722Y-73113048D01*
X130728313Y-73112643D01*
X130729428Y-73113008D01*
X130733607Y-73112946D01*
X130771413Y-73115921D01*
X131450888Y-72436446D01*
X131450888Y-72442661D01*
X131478147Y-72544394D01*
X131530808Y-72635606D01*
X131605282Y-72710080D01*
X131696494Y-72762741D01*
X131798227Y-72790000D01*
X131804441Y-72790000D01*
X131124964Y-73469474D01*
X131169538Y-73501859D01*
X131351856Y-73594755D01*
X131546470Y-73657990D01*
X131748571Y-73690000D01*
X131953205Y-73690000D01*
X132155305Y-73657990D01*
X132349919Y-73594755D01*
X132532237Y-73501859D01*
X132576809Y-73469474D01*
X131897335Y-72790000D01*
X131903549Y-72790000D01*
X132005282Y-72762741D01*
X132096494Y-72710080D01*
X132170968Y-72635606D01*
X132223629Y-72544394D01*
X132250888Y-72442661D01*
X132250888Y-72436447D01*
X132930362Y-73115921D01*
X132962747Y-73071349D01*
X133055643Y-72889031D01*
X133118878Y-72694417D01*
X133150888Y-72492317D01*
X133150888Y-72287682D01*
X133118878Y-72085582D01*
X133055643Y-71890968D01*
X132962747Y-71708650D01*
X132930362Y-71664077D01*
X132930362Y-71664076D01*
X132250888Y-72343551D01*
X132250888Y-72337339D01*
X132223629Y-72235606D01*
X132170968Y-72144394D01*
X132096494Y-72069920D01*
X132005282Y-72017259D01*
X131903549Y-71990000D01*
X131897334Y-71990000D01*
X132576810Y-71310524D01*
X132576809Y-71310523D01*
X132532247Y-71278147D01*
X132532238Y-71278141D01*
X132349919Y-71185244D01*
X132155305Y-71122009D01*
X131953205Y-71090000D01*
X131748571Y-71090000D01*
X131546470Y-71122009D01*
X131351856Y-71185244D01*
X131169532Y-71278143D01*
X131124965Y-71310523D01*
X131124965Y-71310524D01*
X131804442Y-71990000D01*
X131798227Y-71990000D01*
X131696494Y-72017259D01*
X131605282Y-72069920D01*
X131530808Y-72144394D01*
X131478147Y-72235606D01*
X131450888Y-72337339D01*
X131450888Y-72343553D01*
X130771412Y-71664077D01*
X130733607Y-71667053D01*
X130665229Y-71652689D01*
X130615472Y-71603638D01*
X130612998Y-71598949D01*
X130608989Y-71590942D01*
X130585702Y-71520666D01*
X130493600Y-71371344D01*
X130369544Y-71247288D01*
X130220222Y-71155186D01*
X130053685Y-71100001D01*
X130053683Y-71100000D01*
X129950898Y-71089500D01*
X128750886Y-71089500D01*
X128750869Y-71089501D01*
X128648091Y-71100000D01*
X128648088Y-71100001D01*
X128481556Y-71155185D01*
X128481551Y-71155187D01*
X128332233Y-71247287D01*
X128226338Y-71353182D01*
X128165015Y-71386666D01*
X128138657Y-71389500D01*
X126854500Y-71389500D01*
X126787461Y-71369815D01*
X126741706Y-71317011D01*
X126730500Y-71265500D01*
X126730500Y-65194087D01*
X126750185Y-65127048D01*
X126766819Y-65106406D01*
X126790353Y-65082872D01*
X126874814Y-64998411D01*
X126965690Y-64851079D01*
X127020139Y-64686761D01*
X127030500Y-64585343D01*
X127030499Y-63366658D01*
X127020139Y-63265239D01*
X126965690Y-63100921D01*
X126928789Y-63041096D01*
X126910348Y-62973707D01*
X126928789Y-62910903D01*
X126965690Y-62851079D01*
X127020139Y-62686761D01*
X127030500Y-62585343D01*
X127030499Y-61366658D01*
X127023609Y-61299213D01*
X127020139Y-61265239D01*
X127020138Y-61265236D01*
X127006900Y-61225286D01*
X126965690Y-61100921D01*
X126965686Y-61100915D01*
X126965685Y-61100912D01*
X126874816Y-60953592D01*
X126874813Y-60953588D01*
X126766819Y-60845594D01*
X126733334Y-60784271D01*
X126730500Y-60757913D01*
X126730500Y-58726714D01*
X127579873Y-58726714D01*
X127579873Y-58726715D01*
X127614858Y-58752133D01*
X127790164Y-58841455D01*
X127977294Y-58902258D01*
X128171618Y-58933037D01*
X128368382Y-58933037D01*
X128562705Y-58902258D01*
X128749835Y-58841455D01*
X128925143Y-58752132D01*
X128960125Y-58726715D01*
X128960126Y-58726715D01*
X128270001Y-58036590D01*
X128270000Y-58036590D01*
X127579873Y-58726714D01*
X126730500Y-58726714D01*
X126730500Y-58473734D01*
X126750185Y-58406695D01*
X126754170Y-58400864D01*
X126799524Y-58338442D01*
X126888884Y-58163062D01*
X126888884Y-58163059D01*
X126889795Y-58161273D01*
X126937769Y-58110477D01*
X127005590Y-58093681D01*
X127071725Y-58116218D01*
X127110765Y-58161272D01*
X127200905Y-58338182D01*
X127226319Y-58373162D01*
X127226320Y-58373162D01*
X127916446Y-57683037D01*
X127916446Y-57683036D01*
X127870369Y-57636959D01*
X127920000Y-57636959D01*
X127920000Y-57729115D01*
X127943852Y-57818132D01*
X127989930Y-57897942D01*
X128055095Y-57963107D01*
X128134905Y-58009185D01*
X128223922Y-58033037D01*
X128316078Y-58033037D01*
X128405095Y-58009185D01*
X128484905Y-57963107D01*
X128550070Y-57897942D01*
X128596148Y-57818132D01*
X128620000Y-57729115D01*
X128620000Y-57636959D01*
X128596148Y-57547942D01*
X128550070Y-57468132D01*
X128484905Y-57402967D01*
X128405095Y-57356889D01*
X128316078Y-57333037D01*
X128223922Y-57333037D01*
X128134905Y-57356889D01*
X128055095Y-57402967D01*
X127989930Y-57468132D01*
X127943852Y-57547942D01*
X127920000Y-57636959D01*
X127870369Y-57636959D01*
X127226320Y-56992909D01*
X127226320Y-56992910D01*
X127200902Y-57027896D01*
X127110765Y-57204801D01*
X127062790Y-57255597D01*
X126994969Y-57272392D01*
X126928835Y-57249855D01*
X126889795Y-57204800D01*
X126799525Y-57027633D01*
X126774296Y-56992909D01*
X126683828Y-56868391D01*
X126544646Y-56729209D01*
X126420976Y-56639357D01*
X127579872Y-56639357D01*
X128270000Y-57329483D01*
X128270001Y-57329483D01*
X128960125Y-56639357D01*
X128960125Y-56639356D01*
X128925145Y-56613942D01*
X128749835Y-56524618D01*
X128562705Y-56463815D01*
X128368382Y-56433037D01*
X128171618Y-56433037D01*
X127977294Y-56463815D01*
X127790161Y-56524619D01*
X127614863Y-56613936D01*
X127614859Y-56613939D01*
X127579873Y-56639357D01*
X127579872Y-56639357D01*
X126420976Y-56639357D01*
X126385405Y-56613513D01*
X126210029Y-56524154D01*
X126022826Y-56463327D01*
X125828422Y-56432537D01*
X125828417Y-56432537D01*
X125631583Y-56432537D01*
X125631578Y-56432537D01*
X125437173Y-56463327D01*
X125249970Y-56524154D01*
X125074594Y-56613513D01*
X124983741Y-56679522D01*
X124915354Y-56729209D01*
X124915352Y-56729211D01*
X124915351Y-56729211D01*
X124776174Y-56868388D01*
X124776174Y-56868389D01*
X124776172Y-56868391D01*
X124726485Y-56936778D01*
X124660476Y-57027631D01*
X124571117Y-57203007D01*
X124510290Y-57390210D01*
X124479500Y-57584614D01*
X124479500Y-57781459D01*
X124510290Y-57975863D01*
X124571117Y-58163066D01*
X124652410Y-58322612D01*
X124660476Y-58338442D01*
X124705818Y-58400849D01*
X124729298Y-58466655D01*
X124729500Y-58473734D01*
X124729500Y-60757913D01*
X124709815Y-60824952D01*
X124693181Y-60845594D01*
X124585186Y-60953588D01*
X124585183Y-60953592D01*
X124494314Y-61100912D01*
X124494309Y-61100923D01*
X124439861Y-61265237D01*
X124429500Y-61366649D01*
X124429500Y-62585335D01*
X124429501Y-62585352D01*
X124439860Y-62686760D01*
X124439861Y-62686763D01*
X124494309Y-62851076D01*
X124494313Y-62851085D01*
X124531210Y-62910904D01*
X124549650Y-62978296D01*
X124531210Y-63041096D01*
X124494313Y-63100914D01*
X124494309Y-63100923D01*
X124439861Y-63265237D01*
X124429500Y-63366649D01*
X124429500Y-64585335D01*
X124429501Y-64585352D01*
X124439860Y-64686760D01*
X124439861Y-64686763D01*
X124494309Y-64851076D01*
X124494314Y-64851087D01*
X124585183Y-64998407D01*
X124585186Y-64998411D01*
X124693181Y-65106406D01*
X124726666Y-65167729D01*
X124729500Y-65194087D01*
X124729500Y-71265500D01*
X124709815Y-71332539D01*
X124657011Y-71378294D01*
X124605500Y-71389500D01*
X122442231Y-71389500D01*
X122375192Y-71369815D01*
X122354550Y-71353182D01*
X122311891Y-71310523D01*
X122248656Y-71247288D01*
X122099334Y-71155186D01*
X121932797Y-71100001D01*
X121932795Y-71100000D01*
X121830010Y-71089500D01*
X120629998Y-71089500D01*
X120629981Y-71089501D01*
X120527203Y-71100000D01*
X120527200Y-71100001D01*
X120360668Y-71155185D01*
X120360663Y-71155187D01*
X120211342Y-71247289D01*
X120087289Y-71371342D01*
X119995187Y-71520663D01*
X119995186Y-71520666D01*
X119940001Y-71687203D01*
X119940001Y-71687204D01*
X119940000Y-71687204D01*
X119929500Y-71789983D01*
X117383301Y-71789983D01*
X117341859Y-71708650D01*
X117309474Y-71664077D01*
X117309474Y-71664076D01*
X116630000Y-72343551D01*
X116630000Y-72337339D01*
X116602741Y-72235606D01*
X116550080Y-72144394D01*
X116475606Y-72069920D01*
X116384394Y-72017259D01*
X116282661Y-71990000D01*
X116276446Y-71990000D01*
X116955922Y-71310524D01*
X116955921Y-71310523D01*
X116911359Y-71278147D01*
X116911350Y-71278141D01*
X116729031Y-71185244D01*
X116534417Y-71122009D01*
X116332317Y-71090000D01*
X116127683Y-71090000D01*
X115925582Y-71122009D01*
X115730968Y-71185244D01*
X115548644Y-71278143D01*
X115504077Y-71310523D01*
X115504077Y-71310524D01*
X116183554Y-71990000D01*
X116177339Y-71990000D01*
X116075606Y-72017259D01*
X115984394Y-72069920D01*
X115909920Y-72144394D01*
X115857259Y-72235606D01*
X115830000Y-72337339D01*
X115830000Y-72343553D01*
X115150524Y-71664077D01*
X115142834Y-71664682D01*
X115103988Y-71694637D01*
X115034375Y-71700616D01*
X114972580Y-71668010D01*
X114938222Y-71607171D01*
X114935000Y-71579086D01*
X114935000Y-49993480D01*
X114935195Y-49986528D01*
X114935800Y-49975753D01*
X114953473Y-49661048D01*
X114955027Y-49647253D01*
X115009049Y-49329299D01*
X115012143Y-49315747D01*
X115101423Y-49005851D01*
X115106016Y-48992727D01*
X115129728Y-48935479D01*
X115229430Y-48694775D01*
X115235452Y-48682269D01*
X115391467Y-48399983D01*
X115398854Y-48388228D01*
X115585482Y-48125201D01*
X115594128Y-48114358D01*
X115809049Y-47873861D01*
X115818861Y-47864049D01*
X116059358Y-47649128D01*
X116070201Y-47640482D01*
X116333228Y-47453854D01*
X116344983Y-47446467D01*
X116627269Y-47290452D01*
X116639775Y-47284430D01*
X116937727Y-47161016D01*
X116950847Y-47156424D01*
X117260753Y-47067141D01*
X117274299Y-47064049D01*
X117592253Y-47010027D01*
X117606048Y-47008473D01*
X117894283Y-46992286D01*
X117931529Y-46990195D01*
X117938481Y-46990000D01*
X129076519Y-46990000D01*
X129083471Y-46990195D01*
G37*
%TD.AperFunction*%
%TD*%
M02*
