M48
; DRILL file KiCad 10.0.0 date 2026-03-31T11:39:46
; FORMAT={-:-/ absolute / metric / decimal}
; #@! TF.CreationDate,2026-03-31T11:39:46-04:00
; #@! TF.GenerationSoftware,Kicad,Pcbnew,10.0.0
; #@! TF.FileFunction,Plated,1,2,PTH
FMAT,2
METRIC
; #@! TA.AperFunction,Plated,PTH,ComponentDrill
T1C0.700
; #@! TA.AperFunction,Plated,PTH,ComponentDrill
T2C0.800
; #@! TA.AperFunction,Plated,PTH,ComponentDrill
T3C1.000
; #@! TA.AperFunction,Plated,PTH,ComponentDrill
T4C1.100
%
G90
G05
T1
X125.73Y-57.683
X128.27Y-57.683
X130.81Y-57.683
X135.89Y-57.683
X138.43Y-57.683
T2
X116.23Y-72.39
X120.73Y-91.186
X121.23Y-72.39
X124.012Y-83.566
X125.73Y-61.976
X125.73Y-63.976
X125.73Y-72.39
X125.73Y-74.89
X125.73Y-91.186
X126.512Y-83.566
X129.351Y-72.39
X129.814Y-83.566
X129.814Y-91.186
X130.81Y-60.452
X130.81Y-68.072
X131.851Y-72.39
X133.644Y-91.186
X133.985Y-83.566
X136.144Y-91.186
X138.43Y-61.351
X138.43Y-66.351
X138.985Y-83.566
X142.875Y-52.745
X142.875Y-57.745
X146.377Y-50.103
X146.377Y-57.723
T3
X129.58Y-97.155
X132.08Y-97.155
X138.47Y-97.155
X140.97Y-97.155
X149.86Y-50.055
X149.86Y-52.595
X149.86Y-55.135
X149.86Y-57.675
X149.86Y-60.215
X149.86Y-62.755
X149.86Y-65.295
X149.86Y-67.835
X149.86Y-70.375
X149.86Y-72.915
X149.86Y-75.455
X149.86Y-77.995
X149.86Y-80.535
X149.86Y-83.075
X149.86Y-85.615
X149.86Y-88.155
X149.86Y-90.695
X149.86Y-93.235
X149.86Y-95.775
X149.86Y-98.315
X152.4Y-50.055
X152.4Y-52.595
X152.4Y-55.135
X152.4Y-57.675
X152.4Y-60.215
X152.4Y-62.755
X152.4Y-65.295
X152.4Y-67.835
X152.4Y-70.375
X152.4Y-72.915
X152.4Y-75.455
X152.4Y-77.995
X152.4Y-80.535
X152.4Y-83.075
X152.4Y-85.615
X152.4Y-88.155
X152.4Y-90.695
X152.4Y-93.235
X152.4Y-95.775
X152.4Y-98.315
T4
X123.952Y-80.264
X126.492Y-80.264
X129.032Y-80.264
M30
